<svg width="947" height="80" viewBox="0 0 947 80" fill="none" xmlns="http://www.w3.org/2000/svg">
<path d="M44.0332 40.3025L77.6467 20.6825L77.5339 59.84L43.9204 79.46L44.0332 40.3025Z" stroke="white" stroke-linejoin="round"/>
<path d="M55.8635 51.259V45.1001L63.07 40.9392C64.0234 40.3728 64.823 40.208 65.3971 40.4346C65.9814 40.6611 66.2684 41.2894 66.2684 42.309C66.2376 43.1844 65.9814 44.0496 65.5201 44.7911C65.028 45.6665 64.1362 46.4699 62.865 47.2114L55.8635 51.2487V51.259ZM62.9368 33.5444L47.6011 42.4017L47.6318 74.1335L55.884 69.365V58.7259L64.0952 53.978C64.577 53.6896 65.0793 53.4321 65.5918 53.2055C66.0019 53.0305 66.2684 53.1026 66.4222 53.4012C66.5759 53.7102 66.6477 54.287 66.6477 55.1624V63.1443L74.8999 58.3757V49.0962C74.8999 47.4174 74.5616 46.2433 73.885 45.5944C73.2084 44.9456 72.0705 44.9559 70.4816 45.615C70.1023 45.7695 69.7333 45.9446 69.3847 46.1506C69.1182 46.3051 68.8517 46.4699 68.5749 46.6656V46.4184C70.2971 45.1104 71.5785 43.8848 72.4191 42.7519C73.9568 40.6817 74.7256 38.0451 74.7153 34.8421V34.6567C74.6846 32.7102 74.172 31.3713 73.1777 30.64C72.1833 29.9088 70.9839 29.7646 69.5898 30.2178C68.2059 30.6606 65.9814 31.7626 62.9368 33.5238" fill="white"/>
<path d="M10.1123 20.6303L43.7258 1L77.6468 20.6715L44.0333 40.2914L10.1123 20.6303Z" stroke="white" stroke-linejoin="round"/>
<path d="M44.0338 40.3015L43.921 79.459L10 59.7875L10.1128 20.63L44.0338 40.3015Z" stroke="white" stroke-linejoin="round"/>
<path d="M40.784 42.4123L13.0239 26.1602L13.0034 33.7919L22.9265 39.4564L22.8548 64.123L31.0352 68.8606L31.1069 44.194L40.7635 50.044L40.784 42.4123Z" fill="white"/>
<path d="M71.3734 20.2998L43.6646 4.56262L16.5811 20.6294L24.987 25.3258L34.9101 19.4553L48.0111 26.778L54.5513 22.8952L41.4503 15.5725L45.5405 13.1521L64.8434 24.1929L71.3837 20.3101L71.3734 20.2998Z" fill="white"/>
<path d="M112.58 62.23H111.58V63.23H112.58V62.23ZM112.58 21.43V20.43H111.58V21.43H112.58ZM148.76 21.43H149.76V20.43H148.76V21.43ZM148.76 29.89V30.89H149.76V29.89H148.76ZM123.38 29.89V28.89H122.38V29.89H123.38ZM123.38 37.39H122.38V38.39H123.38V37.39ZM147.62 37.39H148.62V36.39H147.62V37.39ZM147.62 45.61V46.61H148.62V45.61H147.62ZM123.38 45.61V44.61H122.38V45.61H123.38ZM123.38 53.77H122.38V54.77H123.38V53.77ZM148.76 53.77H149.76V52.77H148.76V53.77ZM148.76 62.23V63.23H149.76V62.23H148.76ZM113.58 62.23V21.43H111.58V62.23H113.58ZM112.58 22.43H148.76V20.43H112.58V22.43ZM147.76 21.43V29.89H149.76V21.43H147.76ZM148.76 28.89H123.38V30.89H148.76V28.89ZM122.38 29.89V37.39H124.38V29.89H122.38ZM123.38 38.39H147.62V36.39H123.38V38.39ZM146.62 37.39V45.61H148.62V37.39H146.62ZM147.62 44.61H123.38V46.61H147.62V44.61ZM122.38 45.61V53.77H124.38V45.61H122.38ZM123.38 54.77H148.76V52.77H123.38V54.77ZM147.76 53.77V62.23H149.76V53.77H147.76ZM148.76 61.23H112.58V63.23H148.76V61.23ZM184.009 62.23L183.176 62.7838L183.473 63.23H184.009V62.23ZM175.309 49.15L176.141 48.5962L175.844 48.15H175.309V49.15ZM174.889 49.15V48.15H174.347L174.051 48.6042L174.889 49.15ZM166.369 62.23V63.23H166.911L167.207 62.7758L166.369 62.23ZM153.889 62.23L153.05 61.6847L152.045 63.23H153.889V62.23ZM167.629 41.11L168.467 41.6553L168.834 41.0902L168.449 40.5375L167.629 41.11ZM153.889 21.43V20.43H151.971L153.069 22.0024L153.889 21.43ZM166.729 21.43L167.542 20.8487L167.243 20.43H166.729V21.43ZM174.829 32.77L174.015 33.3512L174.314 33.77H174.829V32.77ZM175.309 32.77V33.77H175.814L176.114 33.3625L175.309 32.77ZM183.649 21.43V20.43H183.143L182.843 20.8375L183.649 21.43ZM196.549 21.43L197.362 22.011L198.491 20.43H196.549V21.43ZM182.629 40.93L181.815 40.349L181.418 40.9051L181.792 41.477L182.629 40.93ZM196.549 62.23V63.23H198.397L197.386 61.6829L196.549 62.23ZM184.841 61.6762L176.141 48.5962L174.476 49.7038L183.176 62.7838L184.841 61.6762ZM175.309 48.15H174.889V50.15H175.309V48.15ZM174.051 48.6042L165.531 61.6842L167.207 62.7758L175.727 49.6958L174.051 48.6042ZM166.369 61.23H153.889V63.23H166.369V61.23ZM154.727 62.7753L168.467 41.6553L166.79 40.5647L153.05 61.6847L154.727 62.7753ZM168.449 40.5375L154.709 20.8575L153.069 22.0024L166.809 41.6824L168.449 40.5375ZM153.889 22.43H166.729V20.43H153.889V22.43ZM165.915 22.0112L174.015 33.3512L175.642 32.1887L167.542 20.8487L165.915 22.0112ZM174.829 33.77H175.309V31.77H174.829V33.77ZM176.114 33.3625L184.454 22.0225L182.843 20.8375L174.503 32.1775L176.114 33.3625ZM183.649 22.43H196.549V20.43H183.649V22.43ZM195.735 20.849L181.815 40.349L183.442 41.511L197.362 22.011L195.735 20.849ZM181.792 41.477L195.712 62.777L197.386 61.6829L183.466 40.3829L181.792 41.477ZM196.549 61.23H184.009V63.23H196.549V61.23ZM201.643 62.23H200.643V63.23H201.643V62.23ZM201.643 21.43V20.43H200.643V21.43H201.643ZM234.103 23.05L233.724 23.9756L233.736 23.9804L234.103 23.05ZM239.923 27.67L239.068 28.1894L239.072 28.1955L239.075 28.2015L239.923 27.67ZM238.363 45.67L237.638 44.9809L237.632 44.9872L238.363 45.67ZM212.382 49.33V48.33H211.382V49.33H212.382ZM212.382 62.23V63.23H213.382V62.23H212.382ZM212.382 40.81H211.382V41.81H212.382V40.81ZM229.603 39.31L228.795 38.7199L228.791 38.7257L229.603 39.31ZM212.382 29.89V28.89H211.382V29.89H212.382ZM202.643 62.23V21.43H200.643V62.23H202.643ZM201.643 22.43H224.802V20.43H201.643V22.43ZM224.802 22.43C228.264 22.43 231.23 22.9553 233.724 23.9756L234.481 22.1244C231.695 20.9847 228.461 20.43 224.802 20.43V22.43ZM233.736 23.9804C236.212 24.9559 237.962 26.3693 239.068 28.1894L240.777 27.1506C239.403 24.8906 237.273 23.224 234.469 22.1196L233.736 23.9804ZM239.075 28.2015C240.234 30.0472 240.842 32.372 240.842 35.23H242.842C242.842 32.088 242.171 29.3727 240.77 27.1385L239.075 28.2015ZM240.842 35.23C240.842 39.5833 239.728 42.783 237.638 44.9809L239.087 46.359C241.637 43.6769 242.842 39.9166 242.842 35.23H240.842ZM237.632 44.9872C235.66 47.0979 231.568 48.33 224.923 48.33V50.33C231.637 50.33 236.505 49.122 239.093 46.3527L237.632 44.9872ZM224.923 48.33H212.382V50.33H224.923V48.33ZM211.382 49.33V62.23H213.382V49.33H211.382ZM212.382 61.23H201.643V63.23H212.382V61.23ZM212.382 41.81H224.263V39.81H212.382V41.81ZM224.263 41.81C225.731 41.81 226.986 41.6819 227.998 41.3977C229.001 41.1158 229.87 40.6501 230.414 39.8943L228.791 38.7257C228.615 38.9699 228.234 39.2541 227.457 39.4722C226.689 39.688 225.634 39.81 224.263 39.81V41.81ZM230.41 39.9C231.328 38.6432 231.743 37.0577 231.743 35.23H229.743C229.743 36.7622 229.397 37.8967 228.795 38.7199L230.41 39.9ZM231.743 35.23C231.743 33.4073 231.249 31.843 230.16 30.6543L228.685 32.0057C229.356 32.7369 229.743 33.7727 229.743 35.23H231.743ZM230.16 30.6543C228.984 29.3718 226.993 28.89 224.562 28.89V30.89C226.852 30.89 228.101 31.3682 228.685 32.0057L230.16 30.6543ZM224.562 28.89H212.382V30.89H224.562V28.89ZM211.382 29.89V40.81H213.382V29.89H211.382ZM246.935 62.23H245.935V63.23H246.935V62.23ZM246.935 21.43V20.43H245.935V21.43H246.935ZM257.735 21.43H258.735V20.43H257.735V21.43ZM257.735 53.47H256.735V54.47H257.735V53.47ZM284.195 53.47H285.195V52.47H284.195V53.47ZM284.195 62.23V63.23H285.195V62.23H284.195ZM247.935 62.23V21.43H245.935V62.23H247.935ZM246.935 22.43H257.735V20.43H246.935V22.43ZM256.735 21.43V53.47H258.735V21.43H256.735ZM257.735 54.47H284.195V52.47H257.735V54.47ZM283.195 53.47V62.23H285.195V53.47H283.195ZM284.195 61.23H246.935V63.23H284.195V61.23ZM297.964 60.97L297.512 61.8622L297.519 61.8655L297.526 61.8687L297.964 60.97ZM290.644 53.53L289.743 53.9641L289.747 53.9729L290.644 53.53ZM290.524 30.31L291.431 30.7304L291.433 30.7263L290.524 30.31ZM324.304 22.87L323.84 23.7556L323.844 23.7579L324.304 22.87ZM331.624 30.37L330.721 30.7995L330.724 30.8061L330.727 30.8128L331.624 30.37ZM324.304 60.91L324.751 61.8045L324.76 61.8L324.304 60.91ZM318.424 53.23L317.935 52.3578L317.926 52.3631L318.424 53.23ZM321.904 48.85L320.963 48.5113L320.96 48.5196L320.957 48.5281L321.904 48.85ZM321.964 34.99L321.019 35.3178L321.021 35.3238L321.964 34.99ZM300.184 34.93L299.232 34.6252L299.228 34.6373L300.184 34.93ZM303.784 53.29L303.293 54.161L303.302 54.1662L303.784 53.29ZM311.104 62.37C305.706 62.37 301.495 61.5796 298.402 60.0712L297.526 61.8687C300.993 63.5603 305.542 64.37 311.104 64.37V62.37ZM298.416 60.0778C295.373 58.5375 293.087 56.2172 291.541 53.0871L289.747 53.9729C291.481 57.4827 294.075 60.1224 297.512 61.8622L298.416 60.0778ZM291.545 53.0958C290.022 49.9362 289.244 46.21 289.244 41.89H287.244C287.244 46.45 288.066 50.4838 289.743 53.9641L291.545 53.0958ZM289.244 41.89C289.244 37.5628 289.985 33.8522 291.431 30.7304L289.617 29.8895C288.023 33.3278 287.244 37.3372 287.244 41.89H289.244ZM291.433 30.7263C292.855 27.6201 295.129 25.2856 298.291 23.7044L297.397 21.9156C293.839 23.6944 291.233 26.3599 289.615 29.8937L291.433 30.7263ZM298.291 23.7044C301.464 22.1183 305.713 21.29 311.104 21.29V19.29C305.535 19.29 300.945 20.1417 297.397 21.9156L298.291 23.7044ZM311.104 21.29C316.535 21.29 320.756 22.1386 323.84 23.7556L324.768 21.9844C321.292 20.1614 316.713 19.29 311.104 19.29V21.29ZM323.844 23.7579C326.976 25.3807 329.258 27.7227 330.721 30.7995L332.527 29.9405C330.87 26.4573 328.272 23.7993 324.764 21.9821L323.844 23.7579ZM330.727 30.8128C332.246 33.8872 333.024 37.5691 333.024 41.89H335.024C335.024 37.3309 334.202 33.3328 332.521 29.9272L330.727 30.8128ZM333.024 41.89C333.024 46.2104 332.246 49.9145 330.725 53.0316L332.523 53.9084C334.202 50.4655 335.024 46.4495 335.024 41.89H333.024ZM330.725 53.0316C329.221 56.115 326.938 58.4375 323.848 60.0199L324.76 61.8C328.231 60.0224 330.827 57.3849 332.523 53.9084L330.725 53.0316ZM323.857 60.0156C320.768 61.5599 316.541 62.37 311.104 62.37V64.37C316.708 64.37 321.28 63.5401 324.751 61.8045L323.857 60.0156ZM311.104 55.61C314.442 55.61 317.094 55.1482 318.923 54.0969L317.926 52.3631C316.554 53.1518 314.326 53.61 311.104 53.61V55.61ZM318.913 54.1021C320.795 53.0463 322.102 51.3745 322.851 49.1719L320.957 48.5281C320.346 50.3255 319.333 51.5736 317.935 52.3578L318.913 54.1021ZM322.845 49.1887C323.612 47.0574 323.984 44.6186 323.984 41.89H321.984C321.984 44.4414 321.636 46.6426 320.963 48.5113L322.845 49.1887ZM323.984 41.89C323.984 39.1301 323.635 36.7112 322.907 34.6561L321.021 35.3238C321.654 37.1088 321.984 39.2899 321.984 41.89H323.984ZM322.909 34.6622C322.159 32.5018 320.859 30.827 319.005 29.6962L317.963 31.4038C319.389 32.273 320.409 33.5582 321.019 35.3178L322.909 34.6622ZM319.005 29.6962C317.133 28.5547 314.453 28.05 311.104 28.05V30.05C314.315 30.05 316.556 30.5453 317.963 31.4038L319.005 29.6962ZM311.104 28.05C307.756 28.05 305.07 28.5346 303.168 29.6217L304.16 31.3582C305.618 30.5253 307.892 30.05 311.104 30.05V28.05ZM303.168 29.6217C301.251 30.7169 299.941 32.409 299.232 34.6252L301.136 35.2348C301.707 33.4509 302.717 32.183 304.16 31.3582L303.168 29.6217ZM299.228 34.6373C298.591 36.7161 298.284 39.1394 298.284 41.89H300.284C300.284 39.2805 300.577 37.0638 301.14 35.2227L299.228 34.6373ZM298.284 41.89C298.284 44.6192 298.656 47.0753 299.421 49.2428L301.307 48.5772C300.632 46.6647 300.284 44.4407 300.284 41.89H298.284ZM299.421 49.2428C300.204 51.4613 301.48 53.1386 303.293 54.161L304.275 52.419C302.968 51.6814 301.964 50.4387 301.307 48.5772L299.421 49.2428ZM303.302 54.1662C305.125 55.1689 307.77 55.61 311.104 55.61V53.61C307.878 53.61 305.643 53.171 304.266 52.4138L303.302 54.1662ZM339.103 62.23H338.103V63.23H339.103V62.23ZM339.103 21.43V20.43H338.103V21.43H339.103ZM371.683 22.15L371.454 23.1234L371.465 23.126L371.476 23.1283L371.683 22.15ZM379.303 31.63H380.303V31.622V31.6141L379.303 31.63ZM375.883 40.33L375.329 39.4979L375.323 39.5021L375.883 40.33ZM370.183 42.19L370.029 41.202L369.183 41.3341V42.19H370.183ZM370.183 42.49H369.183V43.595L370.283 43.485L370.183 42.49ZM373.003 42.55L372.851 43.5384L372.86 43.5397L372.869 43.5409L373.003 42.55ZM378.043 45.07L377.238 45.6624L377.242 45.6681L377.246 45.6738L378.043 45.07ZM379.543 62.23V63.23H380.543V62.23H379.543ZM368.743 62.23H367.743V63.23H368.743V62.23ZM368.263 49.03L367.357 49.4529L367.369 49.477L367.381 49.5006L368.263 49.03ZM366.583 48.01L366.435 48.9989L366.462 49.0029L366.489 49.0055L366.583 48.01ZM349.903 47.83V46.83H348.903V47.83H349.903ZM349.903 62.23V63.23H350.903V62.23H349.903ZM349.903 39.37H348.903V40.37H349.903V39.37ZM366.643 38.23L367.249 39.0262L367.253 39.0226L366.643 38.23ZM368.263 34.75L369.263 34.7763V34.7631V34.75H368.263ZM366.823 31.27L366.132 31.992L366.14 31.9996L366.148 32.0071L366.823 31.27ZM349.903 29.89V28.89H348.903V29.89H349.903ZM340.103 62.23V21.43H338.103V62.23H340.103ZM339.103 22.43H361.843V20.43H339.103V22.43ZM361.843 22.43C366.354 22.43 369.535 22.6717 371.454 23.1234L371.912 21.1766C369.752 20.6682 366.373 20.43 361.843 20.43V22.43ZM371.476 23.1283C373.334 23.5213 374.927 24.4634 376.273 25.991L377.774 24.6689C376.16 22.8366 374.193 21.6586 371.89 21.1716L371.476 23.1283ZM376.273 25.991C377.576 27.4699 378.267 29.3319 378.304 31.6458L380.303 31.6141C380.26 28.8881 379.431 26.55 377.774 24.6689L376.273 25.991ZM378.303 31.63C378.303 31.6302 378.303 31.6312 378.303 31.6314C378.303 31.6316 378.303 31.6326 378.303 31.6328C378.303 31.633 378.303 31.634 378.303 31.6342C378.303 31.6344 378.303 31.6354 378.303 31.6356C378.303 31.6358 378.303 31.6369 378.303 31.637C378.303 31.6372 378.303 31.6383 378.303 31.6384C378.303 31.6382 378.303 31.6386 378.303 31.6384C378.303 31.6385 378.303 31.6392 378.303 31.6394C378.303 31.6395 378.303 31.6406 378.303 31.6408C378.303 31.641 378.303 31.642 378.303 31.6422C378.303 31.6424 378.303 31.6434 378.303 31.6436C378.303 31.6438 378.303 31.6448 378.303 31.645C378.303 31.6449 378.303 31.6451 378.303 31.645C378.303 31.6452 378.304 31.6457 378.304 31.6458C378.304 31.646 378.303 31.6462 378.303 31.6464C378.303 31.6466 378.303 31.6476 378.303 31.6478C378.303 31.648 378.303 31.649 378.303 31.6492C378.303 31.6494 378.303 31.6504 378.303 31.6506C378.303 31.6508 378.303 31.6519 378.303 31.652C378.303 31.6522 378.303 31.6533 378.303 31.6534C378.303 31.6535 378.303 31.6547 378.303 31.6548C378.303 31.6549 378.303 31.6561 378.303 31.6562C378.303 31.6563 378.303 31.6575 378.303 31.6576C378.303 31.6577 378.303 31.6589 378.303 31.659C378.303 31.6591 378.303 31.6603 378.303 31.6604C378.303 31.6605 378.303 31.6617 378.303 31.6619C378.303 31.662 378.303 31.6631 378.303 31.6633C378.303 31.6635 378.303 31.6645 378.303 31.6647C378.303 31.6649 378.303 31.6659 378.303 31.6661C378.303 31.6663 378.303 31.6673 378.303 31.6675C378.303 31.6677 378.303 31.6687 378.303 31.6689C378.303 31.6691 378.303 31.6701 378.303 31.6703C378.303 31.6705 378.303 31.6715 378.303 31.6717C378.303 31.6719 378.303 31.6729 378.303 31.6731C378.303 31.6733 378.303 31.6744 378.303 31.6745C378.303 31.6747 378.303 31.6758 378.303 31.6759C378.303 31.6757 378.303 31.6761 378.303 31.6759C378.303 31.676 378.303 31.6767 378.303 31.6769C378.303 31.677 378.303 31.6781 378.303 31.6783C378.303 31.6785 378.303 31.6795 378.303 31.6797C378.303 31.6799 378.303 31.6809 378.303 31.6811C378.303 31.6813 378.303 31.6823 378.303 31.6825C378.303 31.6827 378.303 31.6837 378.303 31.6839C378.303 31.6841 378.303 31.6851 378.303 31.6853C378.303 31.6855 378.303 31.6865 378.303 31.6867C378.303 31.6869 378.303 31.6879 378.303 31.6881C378.303 31.6883 378.303 31.6894 378.303 31.6895C378.303 31.6897 378.303 31.6908 378.303 31.6909C378.303 31.691 378.303 31.6922 378.303 31.6923C378.303 31.6924 378.303 31.6936 378.303 31.6937C378.303 31.6938 378.303 31.695 378.303 31.6951C378.303 31.6952 378.303 31.6964 378.303 31.6965C378.303 31.6966 378.303 31.6978 378.303 31.6979C378.303 31.698 378.303 31.6992 378.303 31.6994C378.303 31.6995 378.303 31.7006 378.303 31.7008C378.303 31.701 378.303 31.702 378.303 31.7022C378.303 31.7024 378.303 31.7034 378.303 31.7036C378.303 31.7038 378.303 31.7048 378.303 31.705C378.303 31.7052 378.303 31.7062 378.303 31.7064C378.303 31.7066 378.303 31.7076 378.303 31.7078C378.303 31.708 378.303 31.709 378.303 31.7092C378.303 31.7094 378.303 31.7104 378.303 31.7106C378.303 31.7108 378.303 31.7119 378.303 31.712C378.303 31.7122 378.303 31.7133 378.303 31.7134C378.303 31.7135 378.303 31.7147 378.303 31.7148C378.303 31.7149 378.303 31.7161 378.303 31.7162C378.303 31.7163 378.303 31.7175 378.303 31.7176C378.303 31.7177 378.303 31.7189 378.303 31.719C378.303 31.7191 378.303 31.7203 378.303 31.7204C378.303 31.7205 378.303 31.7217 378.303 31.7219C378.303 31.722 378.303 31.7231 378.303 31.7233C378.303 31.7235 378.303 31.7245 378.303 31.7247C378.303 31.7249 378.303 31.7259 378.303 31.7261C378.303 31.7263 378.303 31.7273 378.303 31.7275C378.303 31.7277 378.303 31.7287 378.303 31.7289C378.303 31.7291 378.303 31.7301 378.303 31.7303C378.303 31.7305 378.303 31.7315 378.303 31.7317C378.303 31.7319 378.303 31.7329 378.303 31.7331C378.303 31.7333 378.303 31.7344 378.303 31.7345C378.303 31.7347 378.303 31.7358 378.303 31.7359C378.303 31.736 378.303 31.7372 378.303 31.7373C378.303 31.7374 378.303 31.7386 378.303 31.7387C378.303 31.7388 378.303 31.74 378.303 31.7401C378.303 31.7402 378.303 31.7414 378.303 31.7415C378.303 31.7416 378.303 31.7428 378.303 31.7429C378.303 31.743 378.303 31.7442 378.303 31.7444C378.303 31.7445 378.303 31.7456 378.303 31.7458C378.303 31.746 378.303 31.747 378.303 31.7472C378.303 31.7474 378.303 31.7484 378.303 31.7486C378.303 31.7488 378.303 31.7498 378.303 31.75C378.303 31.7502 378.303 31.7512 378.303 31.7514C378.303 31.7516 378.303 31.7526 378.303 31.7528C378.303 31.753 378.303 31.754 378.303 31.7542C378.303 31.7544 378.303 31.7554 378.303 31.7556C378.303 31.7558 378.303 31.7569 378.303 31.757C378.303 31.7572 378.303 31.7583 378.303 31.7584C378.303 31.7585 378.303 31.7597 378.303 31.7598C378.303 31.7599 378.303 31.7611 378.303 31.7612C378.303 31.7613 378.303 31.7625 378.303 31.7626C378.303 31.7627 378.303 31.7639 378.303 31.764C378.303 31.7641 378.303 31.7653 378.303 31.7654C378.303 31.7655 378.303 31.7667 378.303 31.7669C378.303 31.767 378.303 31.7681 378.303 31.7683C378.303 31.7685 378.303 31.7695 378.303 31.7697C378.303 31.7699 378.303 31.7709 378.303 31.7711C378.303 31.7713 378.303 31.7723 378.303 31.7725C378.303 31.7727 378.303 31.7737 378.303 31.7739C378.303 31.7741 378.303 31.7751 378.303 31.7753C378.303 31.7755 378.303 31.7765 378.303 31.7767C378.303 31.7769 378.303 31.7779 378.303 31.7781C378.303 31.7783 378.303 31.7794 378.303 31.7795C378.303 31.7797 378.303 31.7808 378.303 31.7809C378.303 31.7807 378.303 31.7811 378.303 31.7809C378.303 31.781 378.303 31.7817 378.303 31.7819C378.303 31.782 378.303 31.7831 378.303 31.7833C378.303 31.7835 378.303 31.7845 378.303 31.7847C378.303 31.7849 378.303 31.7859 378.303 31.7861C378.303 31.7863 378.303 31.7873 378.303 31.7875C378.303 31.7877 378.303 31.7887 378.303 31.7889C378.303 31.7891 378.303 31.7901 378.303 31.7903C378.303 31.7905 378.303 31.7915 378.303 31.7917C378.303 31.7919 378.303 31.7929 378.303 31.7931C378.303 31.7933 378.303 31.7944 378.303 31.7945C378.303 31.7947 378.303 31.7958 378.303 31.7959C378.303 31.796 378.303 31.7972 378.303 31.7973C378.303 31.7974 378.303 31.7986 378.303 31.7987C378.303 31.7988 378.303 31.8 378.303 31.8001C378.303 31.8002 378.303 31.8014 378.303 31.8015C378.303 31.8016 378.303 31.8028 378.303 31.8029C378.303 31.803 378.303 31.8042 378.303 31.8044C378.303 31.8045 378.303 31.8056 378.303 31.8058C378.303 31.806 378.303 31.807 378.303 31.8072C378.303 31.8074 378.303 31.8084 378.303 31.8086C378.303 31.8088 378.303 31.8098 378.303 31.81C378.303 31.8102 378.303 31.8112 378.303 31.8114C378.303 31.8116 378.303 31.8126 378.303 31.8128C378.303 31.813 378.303 31.814 378.303 31.8142C378.303 31.8144 378.303 31.8154 378.303 31.8156C378.303 31.8158 378.303 31.8169 378.303 31.817C378.303 31.8172 378.303 31.8183 378.303 31.8184C378.303 31.8182 378.303 31.8186 378.303 31.8184C378.303 31.8185 378.303 31.8192 378.303 31.8194C378.303 31.8195 378.303 31.8206 378.303 31.8208C378.303 31.821 378.303 31.822 378.303 31.8222C378.303 31.8224 378.303 31.8234 378.303 31.8236C378.303 31.8238 378.303 31.8248 378.303 31.825C378.303 31.8252 378.303 31.8262 378.303 31.8264C378.303 31.8266 378.303 31.8276 378.303 31.8278C378.303 31.828 378.303 31.829 378.303 31.8292C378.303 31.8294 378.303 31.8304 378.303 31.8306C378.303 31.8308 378.303 31.8319 378.303 31.832C378.303 31.8322 378.303 31.8333 378.303 31.8334C378.303 31.8335 378.303 31.8347 378.303 31.8348C378.303 31.8349 378.303 31.8361 378.303 31.8362C378.303 31.8363 378.303 31.8375 378.303 31.8376C378.303 31.8377 378.303 31.8389 378.303 31.839C378.303 31.8391 378.303 31.8403 378.303 31.8404C378.303 31.8405 378.303 31.8417 378.303 31.8419C378.303 31.842 378.303 31.8431 378.303 31.8433C378.303 31.8435 378.303 31.8445 378.303 31.8447C378.303 31.8449 378.303 31.8459 378.303 31.8461C378.303 31.8463 378.303 31.8473 378.303 31.8475C378.303 31.8477 378.303 31.8487 378.303 31.8489C378.303 31.8491 378.303 31.8501 378.303 31.8503C378.303 31.8505 378.303 31.8515 378.303 31.8517C378.303 31.8519 378.303 31.8529 378.303 31.8531C378.303 31.8533 378.303 31.8544 378.303 31.8545C378.303 31.8547 378.303 31.8558 378.303 31.8559C378.303 31.856 378.303 31.8572 378.303 31.8573C378.303 31.8574 378.303 31.8586 378.303 31.8587C378.303 31.8588 378.303 31.86 378.303 31.8601C378.303 31.8602 378.303 31.8614 378.303 31.8615C378.303 31.8616 378.303 31.8628 378.303 31.8629C378.303 31.863 378.303 31.8642 378.303 31.8644C378.303 31.8645 378.303 31.8656 378.303 31.8658C378.303 31.866 378.303 31.867 378.303 31.8672C378.303 31.8674 378.303 31.8684 378.303 31.8686C378.303 31.8688 378.303 31.8698 378.303 31.87H380.303C380.303 31.8702 380.303 31.8698 380.303 31.87C380.303 31.8699 380.303 31.8692 380.303 31.869C380.303 31.8688 380.303 31.8678 380.303 31.8676C380.303 31.8674 380.303 31.8664 380.303 31.8662C380.303 31.866 380.303 31.865 380.303 31.8648C380.303 31.8646 380.303 31.8636 380.303 31.8634C380.303 31.8632 380.303 31.8622 380.303 31.862C380.303 31.8618 380.303 31.8608 380.303 31.8606C380.303 31.8604 380.303 31.8594 380.303 31.8592C380.303 31.859 380.303 31.8579 380.303 31.8578C380.303 31.8576 380.303 31.8565 380.303 31.8564C380.303 31.8563 380.303 31.8551 380.303 31.855C380.303 31.8549 380.303 31.8537 380.303 31.8536C380.303 31.8535 380.303 31.8523 380.303 31.8522C380.303 31.8521 380.303 31.8509 380.303 31.8508C380.303 31.8507 380.303 31.8495 380.303 31.8494C380.303 31.8493 380.303 31.8481 380.303 31.8479C380.303 31.8478 380.303 31.8467 380.303 31.8465C380.303 31.8463 380.303 31.8453 380.303 31.8451C380.303 31.8449 380.303 31.8439 380.303 31.8437C380.303 31.8435 380.303 31.8425 380.303 31.8423C380.303 31.8421 380.303 31.8411 380.303 31.8409C380.303 31.8407 380.303 31.8397 380.303 31.8395C380.303 31.8393 380.303 31.8383 380.303 31.8381C380.303 31.8379 380.303 31.8369 380.303 31.8367C380.303 31.8365 380.303 31.8354 380.303 31.8353C380.303 31.8351 380.303 31.834 380.303 31.8339C380.303 31.8341 380.303 31.8337 380.303 31.8339C380.303 31.8338 380.303 31.8331 380.303 31.8329C380.303 31.8328 380.303 31.8317 380.303 31.8315C380.303 31.8313 380.303 31.8303 380.303 31.8301C380.303 31.8299 380.303 31.8289 380.303 31.8287C380.303 31.8285 380.303 31.8275 380.303 31.8273C380.303 31.8271 380.303 31.8261 380.303 31.8259C380.303 31.8257 380.303 31.8247 380.303 31.8245C380.303 31.8243 380.303 31.8233 380.303 31.8231C380.303 31.8229 380.303 31.8219 380.303 31.8217C380.303 31.8215 380.303 31.8204 380.303 31.8203C380.303 31.8201 380.303 31.819 380.303 31.8189C380.303 31.8188 380.303 31.8176 380.303 31.8175C380.303 31.8174 380.303 31.8162 380.303 31.8161C380.303 31.816 380.303 31.8148 380.303 31.8147C380.303 31.8146 380.303 31.8134 380.303 31.8133C380.303 31.8132 380.303 31.812 380.303 31.8119C380.303 31.8118 380.303 31.8106 380.303 31.8104C380.303 31.8103 380.303 31.8092 380.303 31.809C380.303 31.8088 380.303 31.8078 380.303 31.8076C380.303 31.8074 380.303 31.8064 380.303 31.8062C380.303 31.806 380.303 31.805 380.303 31.8048C380.303 31.8046 380.303 31.8036 380.303 31.8034C380.303 31.8032 380.303 31.8022 380.303 31.802C380.303 31.8018 380.303 31.8008 380.303 31.8006C380.303 31.8004 380.303 31.7994 380.303 31.7992C380.303 31.799 380.303 31.7979 380.303 31.7978C380.303 31.7976 380.303 31.7965 380.303 31.7964C380.303 31.7963 380.303 31.7951 380.303 31.795C380.303 31.7949 380.303 31.7937 380.303 31.7936C380.303 31.7935 380.303 31.7923 380.303 31.7922C380.303 31.7921 380.303 31.7909 380.303 31.7908C380.303 31.7907 380.303 31.7895 380.303 31.7894C380.303 31.7893 380.303 31.7881 380.303 31.7879C380.303 31.7878 380.303 31.7867 380.303 31.7865C380.303 31.7863 380.303 31.7853 380.303 31.7851C380.303 31.7849 380.303 31.7839 380.303 31.7837C380.303 31.7835 380.303 31.7825 380.303 31.7823C380.303 31.7821 380.303 31.7811 380.303 31.7809C380.303 31.7807 380.303 31.7797 380.303 31.7795C380.303 31.7793 380.303 31.7783 380.303 31.7781C380.303 31.7779 380.303 31.7769 380.303 31.7767C380.303 31.7765 380.303 31.7754 380.303 31.7753C380.303 31.7751 380.303 31.774 380.303 31.7739C380.303 31.7738 380.303 31.7726 380.303 31.7725C380.303 31.7724 380.303 31.7712 380.303 31.7711C380.303 31.771 380.303 31.7698 380.303 31.7697C380.303 31.7696 380.303 31.7684 380.303 31.7683C380.303 31.7682 380.303 31.767 380.303 31.7669C380.303 31.7668 380.303 31.7656 380.303 31.7654C380.303 31.7653 380.303 31.7642 380.303 31.764C380.303 31.7638 380.303 31.7628 380.303 31.7626C380.303 31.7624 380.303 31.7614 380.303 31.7612C380.303 31.761 380.303 31.76 380.303 31.7598C380.303 31.7596 380.303 31.7586 380.303 31.7584C380.303 31.7582 380.303 31.7572 380.303 31.757C380.303 31.7568 380.303 31.7558 380.303 31.7556C380.303 31.7554 380.303 31.7544 380.303 31.7542C380.303 31.754 380.303 31.7529 380.303 31.7528C380.303 31.7526 380.303 31.7515 380.303 31.7514C380.303 31.7513 380.303 31.7501 380.303 31.75C380.303 31.7499 380.303 31.7487 380.303 31.7486C380.303 31.7485 380.303 31.7473 380.303 31.7472C380.303 31.7471 380.303 31.7459 380.303 31.7458C380.303 31.7457 380.303 31.7445 380.303 31.7444C380.303 31.7443 380.303 31.7431 380.303 31.7429C380.303 31.7428 380.303 31.7417 380.303 31.7415C380.303 31.7413 380.303 31.7403 380.303 31.7401C380.303 31.7399 380.303 31.7389 380.303 31.7387C380.303 31.7385 380.303 31.7375 380.303 31.7373C380.303 31.7371 380.303 31.7361 380.303 31.7359C380.303 31.7357 380.303 31.7347 380.303 31.7345C380.303 31.7343 380.303 31.7333 380.303 31.7331C380.303 31.7329 380.303 31.7319 380.303 31.7317C380.303 31.7315 380.303 31.7304 380.303 31.7303C380.303 31.7301 380.303 31.729 380.303 31.7289C380.303 31.7291 380.303 31.7287 380.303 31.7289C380.303 31.7288 380.303 31.7281 380.303 31.7279C380.303 31.7278 380.303 31.7267 380.303 31.7265C380.303 31.7263 380.303 31.7253 380.303 31.7251C380.303 31.7249 380.303 31.7239 380.303 31.7237C380.303 31.7235 380.303 31.7225 380.303 31.7223C380.303 31.7221 380.303 31.7211 380.303 31.7209C380.303 31.7207 380.303 31.7197 380.303 31.7195C380.303 31.7193 380.303 31.7183 380.303 31.7181C380.303 31.7179 380.303 31.7169 380.303 31.7167C380.303 31.7165 380.303 31.7154 380.303 31.7153C380.303 31.7151 380.303 31.714 380.303 31.7139C380.303 31.7138 380.303 31.7126 380.303 31.7125C380.303 31.7124 380.303 31.7112 380.303 31.7111C380.303 31.711 380.303 31.7098 380.303 31.7097C380.303 31.7096 380.303 31.7084 380.303 31.7083C380.303 31.7082 380.303 31.707 380.303 31.7069C380.303 31.7068 380.303 31.7056 380.303 31.7054C380.303 31.7053 380.303 31.7042 380.303 31.704C380.303 31.7038 380.303 31.7028 380.303 31.7026C380.303 31.7024 380.303 31.7014 380.303 31.7012C380.303 31.701 380.303 31.7 380.303 31.6998C380.303 31.6996 380.303 31.6986 380.303 31.6984C380.303 31.6982 380.303 31.6972 380.303 31.697C380.303 31.6968 380.303 31.6958 380.303 31.6956C380.303 31.6954 380.303 31.6944 380.303 31.6942C380.303 31.694 380.303 31.6929 380.303 31.6928C380.303 31.6926 380.303 31.6915 380.303 31.6914C380.303 31.6916 380.303 31.6912 380.303 31.6914C380.303 31.6913 380.303 31.6906 380.303 31.6904C380.303 31.6903 380.303 31.6892 380.303 31.689C380.303 31.6888 380.303 31.6878 380.303 31.6876C380.303 31.6874 380.303 31.6864 380.303 31.6862C380.303 31.686 380.303 31.685 380.303 31.6848C380.303 31.6846 380.303 31.6836 380.303 31.6834C380.303 31.6832 380.303 31.6822 380.303 31.682C380.303 31.6818 380.303 31.6808 380.303 31.6806C380.303 31.6804 380.303 31.6794 380.303 31.6792C380.303 31.679 380.303 31.6779 380.303 31.6778C380.303 31.6776 380.303 31.6765 380.303 31.6764C380.303 31.6763 380.303 31.6751 380.303 31.675C380.303 31.6749 380.303 31.6737 380.303 31.6736C380.303 31.6735 380.303 31.6723 380.303 31.6722C380.303 31.6721 380.303 31.6709 380.303 31.6708C380.303 31.6707 380.303 31.6695 380.303 31.6694C380.303 31.6693 380.303 31.6681 380.303 31.6679C380.303 31.6678 380.303 31.6667 380.303 31.6665C380.303 31.6663 380.303 31.6653 380.303 31.6651C380.303 31.6649 380.303 31.6639 380.303 31.6637C380.303 31.6635 380.303 31.6625 380.303 31.6623C380.303 31.6621 380.303 31.6611 380.303 31.6609C380.303 31.6607 380.303 31.6597 380.303 31.6595C380.303 31.6593 380.303 31.6583 380.303 31.6581C380.303 31.6579 380.303 31.6569 380.303 31.6567C380.303 31.6565 380.303 31.6554 380.303 31.6553C380.303 31.6551 380.303 31.654 380.303 31.6539C380.303 31.6538 380.303 31.6526 380.303 31.6525C380.303 31.6524 380.303 31.6512 380.303 31.6511C380.303 31.651 380.303 31.6498 380.303 31.6497C380.303 31.6496 380.303 31.6484 380.303 31.6483C380.303 31.6482 380.303 31.647 380.303 31.6469C380.303 31.6468 380.303 31.6456 380.303 31.6454C380.303 31.6453 380.303 31.6442 380.303 31.644C380.303 31.6438 380.303 31.6428 380.303 31.6426C380.303 31.6424 380.303 31.6414 380.303 31.6412C380.303 31.641 380.303 31.64 380.303 31.6398C380.303 31.6396 380.303 31.6386 380.303 31.6384C380.303 31.6382 380.303 31.6372 380.303 31.637C380.303 31.6368 380.303 31.6358 380.303 31.6356C380.303 31.6354 380.303 31.6344 380.303 31.6342C380.303 31.634 380.303 31.6329 380.303 31.6328C380.303 31.6326 380.303 31.6315 380.303 31.6314C380.303 31.6313 380.303 31.6301 380.303 31.63H378.303ZM378.303 31.87C378.303 35.8337 377.209 38.2442 375.329 39.4979L376.438 41.162C379.117 39.3758 380.303 36.1463 380.303 31.87H378.303ZM375.323 39.5021C374.263 40.2197 372.535 40.8104 370.029 41.202L370.338 43.178C372.952 42.7695 375.024 42.1202 376.444 41.1579L375.323 39.5021ZM369.183 42.19V42.49H371.183V42.19H369.183ZM370.283 43.485C370.65 43.4483 371.017 43.43 371.383 43.43V41.43C370.95 41.43 370.517 41.4517 370.084 41.4949L370.283 43.485ZM371.383 43.43C371.896 43.43 372.385 43.4666 372.851 43.5384L373.155 41.5616C372.582 41.4734 371.991 41.43 371.383 41.43V43.43ZM372.869 43.5409C375.073 43.8397 376.455 44.5976 377.238 45.6624L378.849 44.4776C377.632 42.8224 375.654 41.9002 373.138 41.559L372.869 43.5409ZM377.246 45.6738C378.08 46.7736 378.543 48.2815 378.543 50.29H380.543C380.543 47.9784 380.007 46.0063 378.841 44.4661L377.246 45.6738ZM378.543 50.29V62.23H380.543V50.29H378.543ZM379.543 61.23H368.743V63.23H379.543V61.23ZM369.743 62.23V51.73H367.743V62.23H369.743ZM369.743 51.73C369.743 50.4737 369.581 49.3763 369.146 48.5594L367.381 49.5006C367.585 49.8836 367.743 50.5862 367.743 51.73H369.743ZM369.17 48.6071C368.698 47.5959 367.759 47.1175 366.678 47.0145L366.489 49.0055C367.087 49.0625 367.269 49.2641 367.357 49.4529L369.17 48.6071ZM366.732 47.021C365.864 46.8909 364.79 46.83 363.523 46.83V48.83C364.737 48.83 365.703 48.8891 366.435 48.9989L366.732 47.021ZM363.523 46.83H349.903V48.83H363.523V46.83ZM348.903 47.83V62.23H350.903V47.83H348.903ZM349.903 61.23H339.103V63.23H349.903V61.23ZM349.903 40.37H361.963V38.37H349.903V40.37ZM361.963 40.37C364.166 40.37 365.991 39.9823 367.249 39.0262L366.038 37.4338C365.296 37.9978 364.001 38.37 361.963 38.37V40.37ZM367.253 39.0226C368.571 38.0086 369.217 36.5438 369.263 34.7763L367.264 34.7237C367.23 35.9961 366.795 36.8514 366.034 37.4374L367.253 39.0226ZM369.263 34.75C369.263 33.0626 368.689 31.6234 367.499 30.5328L366.148 32.0071C366.878 32.6765 367.263 33.5573 367.263 34.75H369.263ZM367.515 30.548C366.277 29.3611 364.356 28.89 362.023 28.89V30.89C364.171 30.89 365.45 31.3388 366.132 31.992L367.515 30.548ZM362.023 28.89H349.903V30.89H362.023V28.89ZM348.903 29.89V39.37H350.903V29.89H348.903ZM384.631 62.23H383.631V63.23H384.631V62.23ZM384.631 21.43V20.43H383.631V21.43H384.631ZM420.811 21.43H421.811V20.43H420.811V21.43ZM420.811 29.89V30.89H421.811V29.89H420.811ZM395.431 29.89V28.89H394.431V29.89H395.431ZM395.431 37.39H394.431V38.39H395.431V37.39ZM419.671 37.39H420.671V36.39H419.671V37.39ZM419.671 45.61V46.61H420.671V45.61H419.671ZM395.431 45.61V44.61H394.431V45.61H395.431ZM395.431 53.77H394.431V54.77H395.431V53.77ZM420.811 53.77H421.811V52.77H420.811V53.77ZM420.811 62.23V63.23H421.811V62.23H420.811ZM385.631 62.23V21.43H383.631V62.23H385.631ZM384.631 22.43H420.811V20.43H384.631V22.43ZM419.811 21.43V29.89H421.811V21.43H419.811ZM420.811 28.89H395.431V30.89H420.811V28.89ZM394.431 29.89V37.39H396.431V29.89H394.431ZM395.431 38.39H419.671V36.39H395.431V38.39ZM418.671 37.39V45.61H420.671V37.39H418.671ZM419.671 44.61H395.431V46.61H419.671V44.61ZM394.431 45.61V53.77H396.431V45.61H394.431ZM395.431 54.77H420.811V52.77H395.431V54.77ZM419.811 53.77V62.23H421.811V53.77H419.811ZM420.811 61.23H384.631V63.23H420.811V61.23ZM436.799 55.93L437.768 56.179L437.876 55.759L437.643 55.3931L436.799 55.93ZM435.419 60.49L436.363 60.8203L436.366 60.8131L435.419 60.49ZM433.619 65.29L432.691 64.9186L432.688 64.9264L433.619 65.29ZM431.639 69.97V70.97H432.28L432.548 70.3875L431.639 69.97ZM425.219 69.97L424.249 69.7274L423.939 70.97H425.219V69.97ZM426.359 64.93L425.381 64.7251L425.38 64.7296L426.359 64.93ZM428.159 55.27V54.27H427.296L427.17 55.1245L428.159 55.27ZM436.379 55.27L437.223 54.7331L436.928 54.27H436.379V55.27ZM435.831 55.6809C435.478 57.0516 435.026 58.5466 434.473 60.1668L436.366 60.8131C436.932 59.1533 437.4 57.6083 437.768 56.179L435.831 55.6809ZM434.476 60.1596C433.92 61.7456 433.326 63.3319 432.691 64.9186L434.548 65.6614C435.193 64.048 435.798 62.4343 436.363 60.8203L434.476 60.1596ZM432.688 64.9264C432.054 66.5497 431.402 68.0916 430.731 69.5525L432.548 70.3875C433.237 68.8884 433.904 67.3103 434.551 65.6535L432.688 64.9264ZM431.639 68.97H425.219V70.97H431.639V68.97ZM426.19 70.2125C426.593 68.5974 426.976 66.9033 427.339 65.1304L425.38 64.7296C425.022 66.4767 424.645 68.1426 424.249 69.7274L426.19 70.2125ZM427.338 65.1348C427.699 63.4091 428.041 61.7032 428.362 60.0171L426.397 59.6429C426.078 61.3168 425.739 63.0109 425.381 64.7251L427.338 65.1348ZM428.362 60.0171C428.684 58.3264 428.946 56.7923 429.149 55.4155L427.17 55.1245C426.972 56.4677 426.715 57.9735 426.397 59.6429L428.362 60.0171ZM428.159 56.27H436.379V54.27H428.159V56.27ZM435.536 55.8069L435.956 56.4669L437.643 55.3931L437.223 54.7331L435.536 55.8069ZM454.123 62.23H453.123V63.23H454.123V62.23ZM454.123 21.43V20.43H453.123V21.43H454.123ZM464.923 21.43H465.923V20.43H464.923V21.43ZM464.923 53.47H463.923V54.47H464.923V53.47ZM491.383 53.47H492.383V52.47H491.383V53.47ZM491.383 62.23V63.23H492.383V62.23H491.383ZM455.123 62.23V21.43H453.123V62.23H455.123ZM454.123 22.43H464.923V20.43H454.123V22.43ZM463.923 21.43V53.47H465.923V21.43H463.923ZM464.923 54.47H491.383V52.47H464.923V54.47ZM490.383 53.47V62.23H492.383V53.47H490.383ZM491.383 61.23H454.123V63.23H491.383V61.23ZM496.486 62.23H495.486V63.23H496.486V62.23ZM496.486 21.43V20.43H495.486V21.43H496.486ZM532.666 21.43H533.666V20.43H532.666V21.43ZM532.666 29.89V30.89H533.666V29.89H532.666ZM507.286 29.89V28.89H506.286V29.89H507.286ZM507.286 37.39H506.286V38.39H507.286V37.39ZM531.526 37.39H532.526V36.39H531.526V37.39ZM531.526 45.61V46.61H532.526V45.61H531.526ZM507.286 45.61V44.61H506.286V45.61H507.286ZM507.286 53.77H506.286V54.77H507.286V53.77ZM532.666 53.77H533.666V52.77H532.666V53.77ZM532.666 62.23V63.23H533.666V62.23H532.666ZM497.486 62.23V21.43H495.486V62.23H497.486ZM496.486 22.43H532.666V20.43H496.486V22.43ZM531.666 21.43V29.89H533.666V21.43H531.666ZM532.666 28.89H507.286V30.89H532.666V28.89ZM506.286 29.89V37.39H508.286V29.89H506.286ZM507.286 38.39H531.526V36.39H507.286V38.39ZM530.526 37.39V45.61H532.526V37.39H530.526ZM531.526 44.61H507.286V46.61H531.526V44.61ZM506.286 45.61V53.77H508.286V45.61H506.286ZM507.286 54.77H532.666V52.77H507.286V54.77ZM531.666 53.77V62.23H533.666V53.77H531.666ZM532.666 61.23H496.486V63.23H532.666V61.23ZM578.655 62.23L577.741 62.6361L578.005 63.23H578.655V62.23ZM575.055 54.13L575.969 53.7238L575.705 53.13H575.055V54.13ZM553.035 54.13V53.13H552.381L552.119 53.7295L553.035 54.13ZM549.495 62.23V63.23H550.149L550.411 62.6304L549.495 62.23ZM537.795 62.23L536.879 61.8275L536.263 63.23H537.795V62.23ZM555.735 21.43V20.43H555.082L554.819 21.0275L555.735 21.43ZM572.295 21.43L573.209 21.0252L572.946 20.43H572.295V21.43ZM590.355 62.23V63.23H591.891L591.269 61.8252L590.355 62.23ZM556.935 45.37L556.019 44.9686L555.405 46.37H556.935V45.37ZM571.155 45.37V46.37H572.69L572.069 44.9655L571.155 45.37ZM564.495 30.31L565.409 29.9055L565.146 29.31H564.495V30.31ZM563.535 30.31V29.31H562.881L562.619 29.9086L563.535 30.31ZM579.569 61.8238L575.969 53.7238L574.141 54.5361L577.741 62.6361L579.569 61.8238ZM575.055 53.13H553.035V55.13H575.055V53.13ZM552.119 53.7295L548.579 61.8295L550.411 62.6304L553.951 54.5304L552.119 53.7295ZM549.495 61.23H537.795V63.23H549.495V61.23ZM538.71 62.6325L556.65 21.8325L554.819 21.0275L536.879 61.8275L538.71 62.6325ZM555.735 22.43H572.295V20.43H555.735V22.43ZM571.38 21.8347L589.44 62.6347L591.269 61.8252L573.209 21.0252L571.38 21.8347ZM590.355 61.23H578.655V63.23H590.355V61.23ZM556.935 46.37H571.155V44.37H556.935V46.37ZM572.069 44.9655L565.409 29.9055L563.58 30.7144L570.24 45.7744L572.069 44.9655ZM564.495 29.31H563.535V31.31H564.495V29.31ZM562.619 29.9086L556.019 44.9686L557.851 45.7714L564.451 30.7114L562.619 29.9086ZM595.451 62.23H594.451V63.23H595.451V62.23ZM595.451 21.43V20.43H594.451V21.43H595.451ZM628.031 22.15L627.802 23.1234L627.813 23.126L627.824 23.1283L628.031 22.15ZM635.651 31.63H636.651V31.622V31.6141L635.651 31.63ZM632.231 40.33L631.676 39.4979L631.67 39.5021L632.231 40.33ZM626.531 42.19L626.377 41.202L625.531 41.3341V42.19H626.531ZM626.531 42.49H625.531V43.595L626.631 43.485L626.531 42.49ZM629.351 42.55L629.199 43.5384L629.208 43.5397L629.217 43.5409L629.351 42.55ZM634.391 45.07L633.585 45.6624L633.59 45.6681L633.594 45.6738L634.391 45.07ZM635.891 62.23V63.23H636.891V62.23H635.891ZM625.091 62.23H624.091V63.23H625.091V62.23ZM624.611 49.03L623.705 49.4529L623.716 49.477L623.729 49.5006L624.611 49.03ZM622.931 48.01L622.783 48.9989L622.809 49.0029L622.836 49.0055L622.931 48.01ZM606.251 47.83V46.83H605.251V47.83H606.251ZM606.251 62.23V63.23H607.251V62.23H606.251ZM606.251 39.37H605.251V40.37H606.251V39.37ZM622.991 38.23L623.596 39.0262L623.601 39.0226L622.991 38.23ZM624.611 34.75L625.611 34.7763V34.7631V34.75H624.611ZM623.171 31.27L622.479 31.992L622.487 31.9996L622.495 32.0071L623.171 31.27ZM606.251 29.89V28.89H605.251V29.89H606.251ZM596.451 62.23V21.43H594.451V62.23H596.451ZM595.451 22.43H618.191V20.43H595.451V22.43ZM618.191 22.43C622.701 22.43 625.882 22.6717 627.802 23.1234L628.26 21.1766C626.1 20.6682 622.721 20.43 618.191 20.43V22.43ZM627.824 23.1283C629.682 23.5213 631.275 24.4634 632.621 25.991L634.121 24.6689C632.507 22.8366 630.54 21.6586 628.238 21.1716L627.824 23.1283ZM632.621 25.991C633.924 27.4699 634.615 29.3319 634.651 31.6458L636.651 31.6141C636.608 28.8881 635.779 26.55 634.121 24.6689L632.621 25.991ZM634.651 31.63C634.651 31.6302 634.651 31.6312 634.651 31.6314C634.651 31.6316 634.651 31.6326 634.651 31.6328C634.651 31.633 634.651 31.634 634.651 31.6342C634.651 31.6344 634.651 31.6354 634.651 31.6356C634.651 31.6358 634.651 31.6369 634.651 31.637C634.651 31.6372 634.651 31.6383 634.651 31.6384C634.651 31.6382 634.651 31.6386 634.651 31.6384C634.651 31.6385 634.651 31.6392 634.651 31.6394C634.651 31.6395 634.651 31.6406 634.651 31.6408C634.651 31.641 634.651 31.642 634.651 31.6422C634.651 31.6424 634.651 31.6434 634.651 31.6436C634.651 31.6438 634.651 31.6456 634.651 31.6458C634.651 31.6457 634.651 31.6459 634.651 31.6458C634.651 31.6459 634.651 31.6467 634.651 31.6469C634.651 31.647 634.651 31.6481 634.651 31.6483C634.651 31.6485 634.651 31.6495 634.651 31.6497C634.651 31.6499 634.651 31.6509 634.651 31.6511C634.651 31.6513 634.651 31.6523 634.651 31.6525C634.651 31.6527 634.651 31.6537 634.651 31.6539C634.651 31.6541 634.651 31.6551 634.651 31.6553C634.651 31.6555 634.651 31.6565 634.651 31.6567C634.651 31.6569 634.651 31.6579 634.651 31.6581C634.651 31.6583 634.651 31.6594 634.651 31.6595C634.651 31.6597 634.651 31.6608 634.651 31.6609C634.651 31.661 634.651 31.6622 634.651 31.6623C634.651 31.6624 634.651 31.6636 634.651 31.6637C634.651 31.6638 634.651 31.665 634.651 31.6651C634.651 31.6652 634.651 31.6664 634.651 31.6665C634.651 31.6666 634.651 31.6678 634.651 31.6679C634.651 31.668 634.651 31.6692 634.651 31.6694C634.651 31.6695 634.651 31.6706 634.651 31.6708C634.651 31.671 634.651 31.672 634.651 31.6722C634.651 31.6724 634.651 31.6734 634.651 31.6736C634.651 31.6738 634.651 31.6748 634.651 31.675C634.651 31.6752 634.651 31.6762 634.651 31.6764C634.651 31.6766 634.651 31.6776 634.651 31.6778C634.651 31.678 634.651 31.679 634.651 31.6792C634.651 31.6794 634.651 31.6804 634.651 31.6806C634.651 31.6808 634.651 31.6819 634.651 31.682C634.651 31.6822 634.651 31.6833 634.651 31.6834C634.651 31.6832 634.651 31.6836 634.651 31.6834C634.651 31.6835 634.651 31.6842 634.651 31.6844C634.651 31.6845 634.651 31.6856 634.651 31.6858C634.651 31.686 634.651 31.687 634.651 31.6872C634.651 31.6874 634.651 31.6884 634.651 31.6886C634.651 31.6888 634.651 31.6898 634.651 31.69C634.651 31.6902 634.651 31.6912 634.651 31.6914C634.651 31.6916 634.651 31.6926 634.651 31.6928C634.651 31.693 634.651 31.694 634.651 31.6942C634.651 31.6944 634.651 31.6954 634.651 31.6956C634.651 31.6958 634.651 31.6969 634.651 31.697C634.651 31.6972 634.651 31.6983 634.651 31.6984C634.651 31.6985 634.651 31.6997 634.651 31.6998C634.651 31.6999 634.651 31.7011 634.651 31.7012C634.651 31.7013 634.651 31.7025 634.651 31.7026C634.651 31.7027 634.651 31.7039 634.651 31.704C634.651 31.7041 634.651 31.7053 634.651 31.7054C634.651 31.7055 634.651 31.7067 634.651 31.7069C634.651 31.707 634.651 31.7081 634.651 31.7083C634.651 31.7085 634.651 31.7095 634.651 31.7097C634.651 31.7099 634.651 31.7109 634.651 31.7111C634.651 31.7113 634.651 31.7123 634.651 31.7125C634.651 31.7127 634.651 31.7137 634.651 31.7139C634.651 31.7141 634.651 31.7151 634.651 31.7153C634.651 31.7155 634.651 31.7165 634.651 31.7167C634.651 31.7169 634.651 31.7179 634.651 31.7181C634.651 31.7183 634.651 31.7194 634.651 31.7195C634.651 31.7197 634.651 31.7208 634.651 31.7209C634.651 31.7207 634.651 31.7211 634.651 31.7209C634.651 31.721 634.651 31.7217 634.651 31.7219C634.651 31.722 634.651 31.7231 634.651 31.7233C634.651 31.7235 634.651 31.7245 634.651 31.7247C634.651 31.7249 634.651 31.7259 634.651 31.7261C634.651 31.7263 634.651 31.7273 634.651 31.7275C634.651 31.7277 634.651 31.7287 634.651 31.7289C634.651 31.7291 634.651 31.7301 634.651 31.7303C634.651 31.7305 634.651 31.7315 634.651 31.7317C634.651 31.7319 634.651 31.7329 634.651 31.7331C634.651 31.7333 634.651 31.7344 634.651 31.7345C634.651 31.7347 634.651 31.7358 634.651 31.7359C634.651 31.736 634.651 31.7372 634.651 31.7373C634.651 31.7374 634.651 31.7386 634.651 31.7387C634.651 31.7388 634.651 31.74 634.651 31.7401C634.651 31.7402 634.651 31.7414 634.651 31.7415C634.651 31.7416 634.651 31.7428 634.651 31.7429C634.651 31.743 634.651 31.7442 634.651 31.7444C634.651 31.7445 634.651 31.7456 634.651 31.7458C634.651 31.746 634.651 31.747 634.651 31.7472C634.651 31.7474 634.651 31.7484 634.651 31.7486C634.651 31.7488 634.651 31.7498 634.651 31.75C634.651 31.7502 634.651 31.7512 634.651 31.7514C634.651 31.7516 634.651 31.7526 634.651 31.7528C634.651 31.753 634.651 31.754 634.651 31.7542C634.651 31.7544 634.651 31.7554 634.651 31.7556C634.651 31.7558 634.651 31.7569 634.651 31.757C634.651 31.7572 634.651 31.7583 634.651 31.7584C634.651 31.7585 634.651 31.7597 634.651 31.7598C634.651 31.7599 634.651 31.7611 634.651 31.7612C634.651 31.7613 634.651 31.7625 634.651 31.7626C634.651 31.7627 634.651 31.7639 634.651 31.764C634.651 31.7641 634.651 31.7653 634.651 31.7654C634.651 31.7655 634.651 31.7667 634.651 31.7669C634.651 31.767 634.651 31.7681 634.651 31.7683C634.651 31.7685 634.651 31.7695 634.651 31.7697C634.651 31.7699 634.651 31.7709 634.651 31.7711C634.651 31.7713 634.651 31.7723 634.651 31.7725C634.651 31.7727 634.651 31.7737 634.651 31.7739C634.651 31.7741 634.651 31.7751 634.651 31.7753C634.651 31.7755 634.651 31.7765 634.651 31.7767C634.651 31.7769 634.651 31.7779 634.651 31.7781C634.651 31.7783 634.651 31.7794 634.651 31.7795C634.651 31.7797 634.651 31.7808 634.651 31.7809C634.651 31.7807 634.651 31.7811 634.651 31.7809C634.651 31.781 634.651 31.7817 634.651 31.7819C634.651 31.782 634.651 31.7831 634.651 31.7833C634.651 31.7835 634.651 31.7845 634.651 31.7847C634.651 31.7849 634.651 31.7859 634.651 31.7861C634.651 31.7863 634.651 31.7873 634.651 31.7875C634.651 31.7877 634.651 31.7887 634.651 31.7889C634.651 31.7891 634.651 31.7901 634.651 31.7903C634.651 31.7905 634.651 31.7915 634.651 31.7917C634.651 31.7919 634.651 31.7929 634.651 31.7931C634.651 31.7933 634.651 31.7944 634.651 31.7945C634.651 31.7947 634.651 31.7958 634.651 31.7959C634.651 31.796 634.651 31.7972 634.651 31.7973C634.651 31.7974 634.651 31.7986 634.651 31.7987C634.651 31.7988 634.651 31.8 634.651 31.8001C634.651 31.8002 634.651 31.8014 634.651 31.8015C634.651 31.8016 634.651 31.8028 634.651 31.8029C634.651 31.803 634.651 31.8042 634.651 31.8044C634.651 31.8045 634.651 31.8056 634.651 31.8058C634.651 31.806 634.651 31.807 634.651 31.8072C634.651 31.8074 634.651 31.8084 634.651 31.8086C634.651 31.8088 634.651 31.8098 634.651 31.81C634.651 31.8102 634.651 31.8112 634.651 31.8114C634.651 31.8116 634.651 31.8126 634.651 31.8128C634.651 31.813 634.651 31.814 634.651 31.8142C634.651 31.8144 634.651 31.8154 634.651 31.8156C634.651 31.8158 634.651 31.8169 634.651 31.817C634.651 31.8172 634.651 31.8183 634.651 31.8184C634.651 31.8182 634.651 31.8186 634.651 31.8184C634.651 31.8185 634.651 31.8192 634.651 31.8194C634.651 31.8195 634.651 31.8206 634.651 31.8208C634.651 31.821 634.651 31.822 634.651 31.8222C634.651 31.8224 634.651 31.8234 634.651 31.8236C634.651 31.8238 634.651 31.8248 634.651 31.825C634.651 31.8252 634.651 31.8262 634.651 31.8264C634.651 31.8266 634.651 31.8276 634.651 31.8278C634.651 31.828 634.651 31.829 634.651 31.8292C634.651 31.8294 634.651 31.8304 634.651 31.8306C634.651 31.8308 634.651 31.8319 634.651 31.832C634.651 31.8322 634.651 31.8333 634.651 31.8334C634.651 31.8335 634.651 31.8347 634.651 31.8348C634.651 31.8349 634.651 31.8361 634.651 31.8362C634.651 31.8363 634.651 31.8375 634.651 31.8376C634.651 31.8377 634.651 31.8389 634.651 31.839C634.651 31.8391 634.651 31.8403 634.651 31.8404C634.651 31.8405 634.651 31.8417 634.651 31.8419C634.651 31.842 634.651 31.8431 634.651 31.8433C634.651 31.8435 634.651 31.8445 634.651 31.8447C634.651 31.8449 634.651 31.8459 634.651 31.8461C634.651 31.8463 634.651 31.8473 634.651 31.8475C634.651 31.8477 634.651 31.8487 634.651 31.8489C634.651 31.8491 634.651 31.8501 634.651 31.8503C634.651 31.8505 634.651 31.8515 634.651 31.8517C634.651 31.8519 634.651 31.8529 634.651 31.8531C634.651 31.8533 634.651 31.8544 634.651 31.8545C634.651 31.8547 634.651 31.8558 634.651 31.8559C634.651 31.856 634.651 31.8572 634.651 31.8573C634.651 31.8574 634.651 31.8586 634.651 31.8587C634.651 31.8588 634.651 31.86 634.651 31.8601C634.651 31.8602 634.651 31.8614 634.651 31.8615C634.651 31.8616 634.651 31.8628 634.651 31.8629C634.651 31.863 634.651 31.8642 634.651 31.8644C634.651 31.8645 634.651 31.8656 634.651 31.8658C634.651 31.866 634.651 31.867 634.651 31.8672C634.651 31.8674 634.651 31.8684 634.651 31.8686C634.651 31.8688 634.651 31.8698 634.651 31.87H636.651C636.651 31.8702 636.651 31.8698 636.651 31.87C636.651 31.8699 636.651 31.8692 636.651 31.869C636.651 31.8688 636.651 31.8678 636.651 31.8676C636.651 31.8674 636.651 31.8664 636.651 31.8662C636.651 31.866 636.651 31.865 636.651 31.8648C636.651 31.8646 636.651 31.8636 636.651 31.8634C636.651 31.8632 636.651 31.8622 636.651 31.862C636.651 31.8618 636.651 31.8608 636.651 31.8606C636.651 31.8604 636.651 31.8594 636.651 31.8592C636.651 31.859 636.651 31.8579 636.651 31.8578C636.651 31.8576 636.651 31.8565 636.651 31.8564C636.651 31.8563 636.651 31.8551 636.651 31.855C636.651 31.8549 636.651 31.8537 636.651 31.8536C636.651 31.8535 636.651 31.8523 636.651 31.8522C636.651 31.8521 636.651 31.8509 636.651 31.8508C636.651 31.8507 636.651 31.8495 636.651 31.8494C636.651 31.8493 636.651 31.8481 636.651 31.8479C636.651 31.8478 636.651 31.8467 636.651 31.8465C636.651 31.8463 636.651 31.8453 636.651 31.8451C636.651 31.8449 636.651 31.8439 636.651 31.8437C636.651 31.8435 636.651 31.8425 636.651 31.8423C636.651 31.8421 636.651 31.8411 636.651 31.8409C636.651 31.8407 636.651 31.8397 636.651 31.8395C636.651 31.8393 636.651 31.8383 636.651 31.8381C636.651 31.8379 636.651 31.8369 636.651 31.8367C636.651 31.8365 636.651 31.8354 636.651 31.8353C636.651 31.8351 636.651 31.834 636.651 31.8339C636.651 31.8341 636.651 31.8337 636.651 31.8339C636.651 31.8338 636.651 31.8331 636.651 31.8329C636.651 31.8328 636.651 31.8317 636.651 31.8315C636.651 31.8313 636.651 31.8303 636.651 31.8301C636.651 31.8299 636.651 31.8289 636.651 31.8287C636.651 31.8285 636.651 31.8275 636.651 31.8273C636.651 31.8271 636.651 31.8261 636.651 31.8259C636.651 31.8257 636.651 31.8247 636.651 31.8245C636.651 31.8243 636.651 31.8233 636.651 31.8231C636.651 31.8229 636.651 31.8219 636.651 31.8217C636.651 31.8215 636.651 31.8204 636.651 31.8203C636.651 31.8201 636.651 31.819 636.651 31.8189C636.651 31.8188 636.651 31.8176 636.651 31.8175C636.651 31.8174 636.651 31.8162 636.651 31.8161C636.651 31.816 636.651 31.8148 636.651 31.8147C636.651 31.8146 636.651 31.8134 636.651 31.8133C636.651 31.8132 636.651 31.812 636.651 31.8119C636.651 31.8118 636.651 31.8106 636.651 31.8104C636.651 31.8103 636.651 31.8092 636.651 31.809C636.651 31.8088 636.651 31.8078 636.651 31.8076C636.651 31.8074 636.651 31.8064 636.651 31.8062C636.651 31.806 636.651 31.805 636.651 31.8048C636.651 31.8046 636.651 31.8036 636.651 31.8034C636.651 31.8032 636.651 31.8022 636.651 31.802C636.651 31.8018 636.651 31.8008 636.651 31.8006C636.651 31.8004 636.651 31.7994 636.651 31.7992C636.651 31.799 636.651 31.7979 636.651 31.7978C636.651 31.7976 636.651 31.7965 636.651 31.7964C636.651 31.7963 636.651 31.7951 636.651 31.795C636.651 31.7949 636.651 31.7937 636.651 31.7936C636.651 31.7935 636.651 31.7923 636.651 31.7922C636.651 31.7921 636.651 31.7909 636.651 31.7908C636.651 31.7907 636.651 31.7895 636.651 31.7894C636.651 31.7893 636.651 31.7881 636.651 31.7879C636.651 31.7878 636.651 31.7867 636.651 31.7865C636.651 31.7863 636.651 31.7853 636.651 31.7851C636.651 31.7849 636.651 31.7839 636.651 31.7837C636.651 31.7835 636.651 31.7825 636.651 31.7823C636.651 31.7821 636.651 31.7811 636.651 31.7809C636.651 31.7807 636.651 31.7797 636.651 31.7795C636.651 31.7793 636.651 31.7783 636.651 31.7781C636.651 31.7779 636.651 31.7769 636.651 31.7767C636.651 31.7765 636.651 31.7754 636.651 31.7753C636.651 31.7751 636.651 31.774 636.651 31.7739C636.651 31.7738 636.651 31.7726 636.651 31.7725C636.651 31.7724 636.651 31.7712 636.651 31.7711C636.651 31.771 636.651 31.7698 636.651 31.7697C636.651 31.7696 636.651 31.7684 636.651 31.7683C636.651 31.7682 636.651 31.767 636.651 31.7669C636.651 31.7668 636.651 31.7656 636.651 31.7654C636.651 31.7653 636.651 31.7642 636.651 31.764C636.651 31.7638 636.651 31.7628 636.651 31.7626C636.651 31.7624 636.651 31.7614 636.651 31.7612C636.651 31.761 636.651 31.76 636.651 31.7598C636.651 31.7596 636.651 31.7586 636.651 31.7584C636.651 31.7582 636.651 31.7572 636.651 31.757C636.651 31.7568 636.651 31.7558 636.651 31.7556C636.651 31.7554 636.651 31.7544 636.651 31.7542C636.651 31.754 636.651 31.7529 636.651 31.7528C636.651 31.7526 636.651 31.7515 636.651 31.7514C636.651 31.7513 636.651 31.7501 636.651 31.75C636.651 31.7499 636.651 31.7487 636.651 31.7486C636.651 31.7485 636.651 31.7473 636.651 31.7472C636.651 31.7471 636.651 31.7459 636.651 31.7458C636.651 31.7457 636.651 31.7445 636.651 31.7444C636.651 31.7443 636.651 31.7431 636.651 31.7429C636.651 31.7428 636.651 31.7417 636.651 31.7415C636.651 31.7413 636.651 31.7403 636.651 31.7401C636.651 31.7399 636.651 31.7389 636.651 31.7387C636.651 31.7385 636.651 31.7375 636.651 31.7373C636.651 31.7371 636.651 31.7361 636.651 31.7359C636.651 31.7357 636.651 31.7347 636.651 31.7345C636.651 31.7343 636.651 31.7333 636.651 31.7331C636.651 31.7329 636.651 31.7319 636.651 31.7317C636.651 31.7315 636.651 31.7304 636.651 31.7303C636.651 31.7301 636.651 31.729 636.651 31.7289C636.651 31.7291 636.651 31.7287 636.651 31.7289C636.651 31.7288 636.651 31.7281 636.651 31.7279C636.651 31.7278 636.651 31.7267 636.651 31.7265C636.651 31.7263 636.651 31.7253 636.651 31.7251C636.651 31.7249 636.651 31.7239 636.651 31.7237C636.651 31.7235 636.651 31.7225 636.651 31.7223C636.651 31.7221 636.651 31.7211 636.651 31.7209C636.651 31.7207 636.651 31.7197 636.651 31.7195C636.651 31.7193 636.651 31.7183 636.651 31.7181C636.651 31.7179 636.651 31.7169 636.651 31.7167C636.651 31.7165 636.651 31.7154 636.651 31.7153C636.651 31.7151 636.651 31.714 636.651 31.7139C636.651 31.7138 636.651 31.7126 636.651 31.7125C636.651 31.7124 636.651 31.7112 636.651 31.7111C636.651 31.711 636.651 31.7098 636.651 31.7097C636.651 31.7096 636.651 31.7084 636.651 31.7083C636.651 31.7082 636.651 31.707 636.651 31.7069C636.651 31.7068 636.651 31.7056 636.651 31.7054C636.651 31.7053 636.651 31.7042 636.651 31.704C636.651 31.7038 636.651 31.7028 636.651 31.7026C636.651 31.7024 636.651 31.7014 636.651 31.7012C636.651 31.701 636.651 31.7 636.651 31.6998C636.651 31.6996 636.651 31.6986 636.651 31.6984C636.651 31.6982 636.651 31.6972 636.651 31.697C636.651 31.6968 636.651 31.6958 636.651 31.6956C636.651 31.6954 636.651 31.6944 636.651 31.6942C636.651 31.694 636.651 31.6929 636.651 31.6928C636.651 31.6926 636.651 31.6915 636.651 31.6914C636.651 31.6916 636.651 31.6912 636.651 31.6914C636.651 31.6913 636.651 31.6906 636.651 31.6904C636.651 31.6903 636.651 31.6892 636.651 31.689C636.651 31.6888 636.651 31.6878 636.651 31.6876C636.651 31.6874 636.651 31.6864 636.651 31.6862C636.651 31.686 636.651 31.685 636.651 31.6848C636.651 31.6846 636.651 31.6836 636.651 31.6834C636.651 31.6832 636.651 31.6822 636.651 31.682C636.651 31.6818 636.651 31.6808 636.651 31.6806C636.651 31.6804 636.651 31.6794 636.651 31.6792C636.651 31.679 636.651 31.6779 636.651 31.6778C636.651 31.6776 636.651 31.6765 636.651 31.6764C636.651 31.6763 636.651 31.6751 636.651 31.675C636.651 31.6749 636.651 31.6737 636.651 31.6736C636.651 31.6735 636.651 31.6723 636.651 31.6722C636.651 31.6721 636.651 31.6709 636.651 31.6708C636.651 31.6707 636.651 31.6695 636.651 31.6694C636.651 31.6693 636.651 31.6681 636.651 31.6679C636.651 31.6678 636.651 31.6667 636.651 31.6665C636.651 31.6663 636.651 31.6653 636.651 31.6651C636.651 31.6649 636.651 31.6639 636.651 31.6637C636.651 31.6635 636.651 31.6625 636.651 31.6623C636.651 31.6621 636.651 31.6611 636.651 31.6609C636.651 31.6607 636.651 31.6597 636.651 31.6595C636.651 31.6593 636.651 31.6583 636.651 31.6581C636.651 31.6579 636.651 31.6569 636.651 31.6567C636.651 31.6565 636.651 31.6554 636.651 31.6553C636.651 31.6551 636.651 31.654 636.651 31.6539C636.651 31.6538 636.651 31.6526 636.651 31.6525C636.651 31.6524 636.651 31.6512 636.651 31.6511C636.651 31.651 636.651 31.6498 636.651 31.6497C636.651 31.6496 636.651 31.6484 636.651 31.6483C636.651 31.6482 636.651 31.647 636.651 31.6469C636.651 31.6468 636.651 31.6456 636.651 31.6454C636.651 31.6453 636.651 31.6442 636.651 31.644C636.651 31.6438 636.651 31.6428 636.651 31.6426C636.651 31.6424 636.651 31.6414 636.651 31.6412C636.651 31.641 636.651 31.64 636.651 31.6398C636.651 31.6396 636.651 31.6386 636.651 31.6384C636.651 31.6382 636.651 31.6372 636.651 31.637C636.651 31.6368 636.651 31.6358 636.651 31.6356C636.651 31.6354 636.651 31.6344 636.651 31.6342C636.651 31.634 636.651 31.6329 636.651 31.6328C636.651 31.6326 636.651 31.6315 636.651 31.6314C636.651 31.6313 636.651 31.6301 636.651 31.63H634.651ZM634.651 31.87C634.651 35.8337 633.557 38.2442 631.676 39.4979L632.786 41.162C635.465 39.3758 636.651 36.1463 636.651 31.87H634.651ZM631.67 39.5021C630.611 40.2197 628.883 40.8104 626.377 41.202L626.685 43.178C629.3 42.7695 631.371 42.1202 632.792 41.1579L631.67 39.5021ZM625.531 42.19V42.49H627.531V42.19H625.531ZM626.631 43.485C626.998 43.4483 627.365 43.43 627.731 43.43V41.43C627.298 41.43 626.865 41.4517 626.432 41.4949L626.631 43.485ZM627.731 43.43C628.243 43.43 628.732 43.4666 629.199 43.5384L629.503 41.5616C628.93 41.4734 628.339 41.43 627.731 41.43V43.43ZM629.217 43.5409C631.42 43.8397 632.803 44.5976 633.585 45.6624L635.197 44.4776C633.98 42.8224 632.002 41.9002 629.485 41.559L629.217 43.5409ZM633.594 45.6738C634.427 46.7736 634.891 48.2815 634.891 50.29H636.891C636.891 47.9784 636.355 46.0063 635.188 44.4661L633.594 45.6738ZM634.891 50.29V62.23H636.891V50.29H634.891ZM635.891 61.23H625.091V63.23H635.891V61.23ZM626.091 62.23V51.73H624.091V62.23H626.091ZM626.091 51.73C626.091 50.4737 625.929 49.3763 625.493 48.5594L623.729 49.5006C623.933 49.8836 624.091 50.5862 624.091 51.73H626.091ZM625.517 48.6071C625.045 47.5959 624.107 47.1175 623.026 47.0145L622.836 49.0055C623.435 49.0625 623.617 49.2641 623.705 49.4529L625.517 48.6071ZM623.079 47.021C622.212 46.8909 621.138 46.83 619.871 46.83V48.83C621.085 48.83 622.05 48.8891 622.783 48.9989L623.079 47.021ZM619.871 46.83H606.251V48.83H619.871V46.83ZM605.251 47.83V62.23H607.251V47.83H605.251ZM606.251 61.23H595.451V63.23H606.251V61.23ZM606.251 40.37H618.311V38.37H606.251V40.37ZM618.311 40.37C620.513 40.37 622.338 39.9823 623.596 39.0262L622.386 37.4338C621.644 37.9978 620.349 38.37 618.311 38.37V40.37ZM623.601 39.0226C624.919 38.0086 625.564 36.5438 625.611 34.7763L623.611 34.7237C623.578 35.9961 623.143 36.8514 622.381 37.4374L623.601 39.0226ZM625.611 34.75C625.611 33.0626 625.037 31.6234 623.847 30.5328L622.495 32.0071C623.226 32.6765 623.611 33.5573 623.611 34.75H625.611ZM623.863 30.548C622.625 29.3611 620.704 28.89 618.371 28.89V30.89C620.518 30.89 621.798 31.3388 622.479 31.992L623.863 30.548ZM618.371 28.89H606.251V30.89H618.371V28.89ZM605.251 29.89V39.37H607.251V29.89H605.251ZM640.918 62.23H639.918V63.23H640.918V62.23ZM640.918 21.43V20.43H639.918V21.43H640.918ZM652.378 21.43L653.186 20.8405L652.887 20.43H652.378V21.43ZM671.338 47.41L670.531 47.9995L672.338 50.4766V47.41H671.338ZM671.338 21.43V20.43H670.338V21.43H671.338ZM682.078 21.43H683.078V20.43H682.078V21.43ZM682.078 62.23V63.23H683.078V62.23H682.078ZM670.618 62.23L669.81 62.8183L670.109 63.23H670.618V62.23ZM651.718 36.25L652.527 35.6617L650.718 33.1755V36.25H651.718ZM651.718 62.23V63.23H652.718V62.23H651.718ZM641.918 62.23V21.43H639.918V62.23H641.918ZM640.918 22.43H652.378V20.43H640.918V22.43ZM651.571 22.0195L670.531 47.9995L672.146 46.8205L653.186 20.8405L651.571 22.0195ZM672.338 47.41V21.43H670.338V47.41H672.338ZM671.338 22.43H682.078V20.43H671.338V22.43ZM681.078 21.43V62.23H683.078V21.43H681.078ZM682.078 61.23H670.618V63.23H682.078V61.23ZM671.427 61.6417L652.527 35.6617L650.91 36.8383L669.81 62.8183L671.427 61.6417ZM650.718 36.25V62.23H652.718V36.25H650.718ZM651.718 61.23H640.918V63.23H651.718V61.23ZM698.128 55.93L699.096 56.179L699.204 55.759L698.971 55.3931L698.128 55.93ZM696.747 60.49L697.691 60.8203L697.694 60.8131L696.747 60.49ZM694.948 65.29L694.019 64.9186L694.016 64.9264L694.948 65.29ZM692.968 69.97V70.97H693.609L693.876 70.3875L692.968 69.97ZM686.547 69.97L685.577 69.7274L685.267 70.97H686.547V69.97ZM687.688 64.93L686.709 64.7251L686.708 64.7296L687.688 64.93ZM689.487 55.27V54.27H688.624L688.498 55.1245L689.487 55.27ZM697.708 55.27L698.551 54.7331L698.256 54.27H697.708V55.27ZM697.159 55.6809C696.807 57.0516 696.354 58.5466 695.801 60.1668L697.694 60.8131C698.261 59.1533 698.728 57.6083 699.096 56.179L697.159 55.6809ZM695.804 60.1596C695.249 61.7456 694.654 63.3319 694.019 64.9186L695.876 65.6614C696.521 64.048 697.126 62.4343 697.691 60.8203L695.804 60.1596ZM694.016 64.9264C693.382 66.5497 692.73 68.0916 692.059 69.5525L693.876 70.3875C694.565 68.8884 695.233 67.3103 695.879 65.6535L694.016 64.9264ZM692.968 68.97H686.547V70.97H692.968V68.97ZM687.518 70.2125C687.921 68.5974 688.305 66.9033 688.667 65.1304L686.708 64.7296C686.35 66.4767 685.974 68.1426 685.577 69.7274L687.518 70.2125ZM688.666 65.1348C689.027 63.4091 689.369 61.7032 689.69 60.0171L687.725 59.6429C687.406 61.3168 687.068 63.0109 686.709 64.7251L688.666 65.1348ZM689.69 60.0171C690.012 58.3264 690.274 56.7923 690.477 55.4155L688.498 55.1245C688.301 56.4677 688.043 57.9735 687.725 59.6429L689.69 60.0171ZM689.487 56.27H697.708V54.27H689.487V56.27ZM696.864 55.8069L697.284 56.4669L698.971 55.3931L698.551 54.7331L696.864 55.8069ZM758.771 35.35V36.35H759.938L759.759 35.197L758.771 35.35ZM747.491 35.35L746.518 35.58L746.7 36.35H747.491V35.35ZM730.751 30.61L731.344 31.4156L731.347 31.4127L730.751 30.61ZM727.571 35.05L726.639 34.6884L726.635 34.6989L727.571 35.05ZM727.631 48.73L726.701 49.098L726.705 49.1063L726.708 49.1146L727.631 48.73ZM730.991 53.11L730.421 53.9314L730.431 53.9386L730.991 53.11ZM747.131 47.53L748.104 47.7616L748.397 46.53H747.131V47.53ZM738.071 47.53H737.071V48.53H738.071V47.53ZM738.071 39.43V38.43H737.071V39.43H738.071ZM757.451 40.81L756.68 41.4469L756.695 41.4651L756.711 41.4827L757.451 40.81ZM759.131 44.83L760.118 44.67L760.117 44.6625L760.116 44.6549L759.131 44.83ZM761.951 62.23V63.23H763.126L762.938 62.07L761.951 62.23ZM753.191 62.23L752.209 62.4163L752.363 63.23H753.191V62.23ZM751.871 55.27L752.854 55.0836L752.284 52.0779L750.968 54.84L751.871 55.27ZM749.171 59.29L748.464 58.5829L748.459 58.588L748.454 58.5932L749.171 59.29ZM744.671 62.35L744.308 61.4184L744.298 61.4222L744.288 61.4262L744.671 62.35ZM724.751 60.79L724.235 61.6465L724.244 61.6516L724.751 60.79ZM717.911 30.37L717.023 29.9096L717.019 29.9184L717.911 30.37ZM725.051 22.93L725.539 23.8031L725.547 23.7982L725.051 22.93ZM748.571 21.97L748.181 22.8906L748.185 22.8926L748.571 21.97ZM755.291 27.01L754.512 27.6364L754.517 27.6432L755.291 27.01ZM758.771 34.35H747.491V36.35H758.771V34.35ZM748.464 35.12C747.908 32.7679 746.871 30.9265 745.263 29.7443L744.079 31.3556C745.191 32.1735 746.034 33.5321 746.518 35.58L748.464 35.12ZM745.263 29.7443C743.63 28.5431 740.988 28.05 737.591 28.05V30.05C740.915 30.05 742.992 30.5569 744.079 31.3556L745.263 29.7443ZM737.591 28.05C734.369 28.05 731.819 28.571 730.155 29.8072L731.347 31.4127C732.483 30.569 734.493 30.05 737.591 30.05V28.05ZM730.159 29.8043C728.612 30.9418 727.451 32.5944 726.639 34.6884L728.503 35.4115C729.212 33.5854 730.17 32.2782 731.344 31.4156L730.159 29.8043ZM726.635 34.6989C725.862 36.7582 725.491 39.1629 725.491 41.89H727.491C727.491 39.3371 727.84 37.1817 728.507 35.4011L726.635 34.6989ZM725.491 41.89C725.491 44.6224 725.884 47.0332 726.701 49.098L728.561 48.3619C727.858 46.5867 727.491 44.4375 727.491 41.89H725.491ZM726.708 49.1146C727.568 51.1775 728.797 52.8035 730.421 53.9314L731.561 52.2886C730.306 51.4164 729.295 50.1224 728.554 48.3454L726.708 49.1146ZM730.431 53.9386C732.132 55.0875 734.35 55.61 736.991 55.61V53.61C734.592 53.61 732.811 53.1325 731.551 52.2814L730.431 53.9386ZM736.991 55.61C739.392 55.61 741.342 55.3888 742.776 54.8957L742.126 53.0043C741.001 53.3911 739.31 53.61 736.991 53.61V55.61ZM742.776 54.8957C744.254 54.3877 745.436 53.4952 746.283 52.2247L744.619 51.1153C744.026 52.0047 743.208 52.6323 742.126 53.0043L742.776 54.8957ZM746.283 52.2247C747.087 51.0196 747.685 49.521 748.104 47.7616L746.158 47.2984C745.777 48.899 745.256 50.1604 744.619 51.1153L746.283 52.2247ZM747.131 46.53H738.071V48.53H747.131V46.53ZM739.071 47.53V39.43H737.071V47.53H739.071ZM738.071 40.43H753.791V38.43H738.071V40.43ZM753.791 40.43C755.3 40.43 756.178 40.8395 756.68 41.4469L758.222 40.1731C757.204 38.9404 755.642 38.43 753.791 38.43V40.43ZM756.711 41.4827C757.333 42.1671 757.843 43.2985 758.147 45.005L760.116 44.6549C759.779 42.7615 759.169 41.2128 758.191 40.1373L756.711 41.4827ZM758.144 44.99L760.964 62.39L762.938 62.07L760.118 44.67L758.144 44.99ZM761.951 61.23H753.191V63.23H761.951V61.23ZM754.174 62.0436L752.854 55.0836L750.889 55.4563L752.209 62.4163L754.174 62.0436ZM750.968 54.84C750.203 56.4478 749.362 57.6844 748.464 58.5829L749.878 59.9971C750.98 58.8956 751.94 57.4522 752.774 55.6999L750.968 54.84ZM748.454 58.5932C747.183 59.9018 745.8 60.8359 744.308 61.4184L745.035 63.2816C746.822 62.5841 748.44 61.4782 749.888 59.9868L748.454 58.5932ZM744.288 61.4262C742.841 62.0264 740.369 62.37 736.751 62.37V64.37C740.414 64.37 743.222 64.0336 745.054 63.2737L744.288 61.4262ZM736.751 62.37C731.767 62.37 727.967 61.5234 725.259 59.9283L724.244 61.6516C727.376 63.4965 731.575 64.37 736.751 64.37V62.37ZM725.267 59.9335C722.516 58.275 720.361 55.9377 718.801 52.8939L717.021 53.8061C718.741 57.1622 721.147 59.7851 724.235 61.6465L725.267 59.9335ZM718.801 52.8939C717.248 49.8644 716.451 46.208 716.451 41.89H714.451C714.451 46.452 715.294 50.4356 717.021 53.8061L718.801 52.8939ZM716.451 41.89C716.451 37.5725 717.248 33.8938 718.803 30.8216L717.019 29.9184C715.294 33.3261 714.451 37.3275 714.451 41.89H716.451ZM718.799 30.8303C720.392 27.7577 722.636 25.4242 725.539 23.8031L724.564 22.0569C721.306 23.8758 718.79 26.5021 717.023 29.9096L718.799 30.8303ZM725.547 23.7982C728.416 22.1588 732.48 21.29 737.831 21.29V19.29C732.302 19.29 727.846 20.1812 724.555 22.0617L725.547 23.7982ZM737.831 21.29C742.286 21.29 745.715 21.8444 748.181 22.8906L748.962 21.0494C746.148 19.8555 742.417 19.29 737.831 19.29V21.29ZM748.185 22.8926C750.713 23.949 752.817 25.5279 754.512 27.6364L756.071 26.3836C754.165 24.012 751.789 22.2309 748.957 21.0473L748.185 22.8926ZM754.517 27.6432C756.184 29.6802 757.285 32.2846 757.783 35.5029L759.759 35.197C759.217 31.6954 757.998 28.7397 756.065 26.3767L754.517 27.6432ZM767.072 62.23H766.072V63.23H767.072V62.23ZM767.072 21.43V20.43H766.072V21.43H767.072ZM799.652 22.15L799.423 23.1234L799.434 23.126L799.445 23.1283L799.652 22.15ZM807.272 31.63H808.272V31.622V31.6141L807.272 31.63ZM803.852 40.33L803.297 39.4979L803.291 39.5021L803.852 40.33ZM798.152 42.19L797.998 41.202L797.152 41.3341V42.19H798.152ZM798.152 42.49H797.152V43.595L798.252 43.485L798.152 42.49ZM800.972 42.55L800.82 43.5384L800.829 43.5397L800.838 43.5409L800.972 42.55ZM806.012 45.07L805.207 45.6624L805.211 45.6681L805.215 45.6738L806.012 45.07ZM807.512 62.23V63.23H808.512V62.23H807.512ZM796.712 62.23H795.712V63.23H796.712V62.23ZM796.232 49.03L795.326 49.4529L795.337 49.477L795.35 49.5006L796.232 49.03ZM794.552 48.01L794.404 48.9989L794.431 49.0029L794.457 49.0055L794.552 48.01ZM777.872 47.83V46.83H776.872V47.83H777.872ZM777.872 62.23V63.23H778.872V62.23H777.872ZM777.872 39.37H776.872V40.37H777.872V39.37ZM794.612 38.23L795.217 39.0262L795.222 39.0226L794.612 38.23ZM796.232 34.75L797.232 34.7763V34.7631V34.75H796.232ZM794.792 31.27L794.1 31.992L794.108 31.9996L794.116 32.0071L794.792 31.27ZM777.872 29.89V28.89H776.872V29.89H777.872ZM768.072 62.23V21.43H766.072V62.23H768.072ZM767.072 22.43H789.812V20.43H767.072V22.43ZM789.812 22.43C794.323 22.43 797.504 22.6717 799.423 23.1234L799.881 21.1766C797.721 20.6682 794.342 20.43 789.812 20.43V22.43ZM799.445 23.1283C801.303 23.5213 802.896 24.4634 804.242 25.991L805.743 24.6689C804.128 22.8366 802.161 21.6586 799.859 21.1716L799.445 23.1283ZM804.242 25.991C805.545 27.4699 806.236 29.3319 806.272 31.6458L808.272 31.6141C808.229 28.8881 807.4 26.55 805.743 24.6689L804.242 25.991ZM806.272 31.63C806.272 31.6302 806.272 31.6312 806.272 31.6314C806.272 31.6316 806.272 31.6326 806.272 31.6328C806.272 31.633 806.272 31.634 806.272 31.6342C806.272 31.6344 806.272 31.6354 806.272 31.6356C806.272 31.6358 806.272 31.6369 806.272 31.637C806.272 31.6372 806.272 31.6383 806.272 31.6384C806.272 31.6382 806.272 31.6386 806.272 31.6384C806.272 31.6385 806.272 31.6392 806.272 31.6394C806.272 31.6395 806.272 31.6406 806.272 31.6408C806.272 31.641 806.272 31.642 806.272 31.6422C806.272 31.6424 806.272 31.6434 806.272 31.6436C806.272 31.6438 806.272 31.6456 806.272 31.6458C806.272 31.6457 806.272 31.6459 806.272 31.6458C806.272 31.6459 806.272 31.6467 806.272 31.6469C806.272 31.647 806.272 31.6481 806.272 31.6483C806.272 31.6485 806.272 31.6495 806.272 31.6497C806.272 31.6499 806.272 31.6509 806.272 31.6511C806.272 31.6513 806.272 31.6523 806.272 31.6525C806.272 31.6527 806.272 31.6537 806.272 31.6539C806.272 31.6541 806.272 31.6551 806.272 31.6553C806.272 31.6555 806.272 31.6565 806.272 31.6567C806.272 31.6569 806.272 31.6579 806.272 31.6581C806.272 31.6583 806.272 31.6594 806.272 31.6595C806.272 31.6597 806.272 31.6608 806.272 31.6609C806.272 31.661 806.272 31.6622 806.272 31.6623C806.272 31.6624 806.272 31.6636 806.272 31.6637C806.272 31.6638 806.272 31.665 806.272 31.6651C806.272 31.6652 806.272 31.6664 806.272 31.6665C806.272 31.6666 806.272 31.6678 806.272 31.6679C806.272 31.668 806.272 31.6692 806.272 31.6694C806.272 31.6695 806.272 31.6706 806.272 31.6708C806.272 31.671 806.272 31.672 806.272 31.6722C806.272 31.6724 806.272 31.6734 806.272 31.6736C806.272 31.6738 806.272 31.6748 806.272 31.675C806.272 31.6752 806.272 31.6762 806.272 31.6764C806.272 31.6766 806.272 31.6776 806.272 31.6778C806.272 31.678 806.272 31.679 806.272 31.6792C806.272 31.6794 806.272 31.6804 806.272 31.6806C806.272 31.6808 806.272 31.6819 806.272 31.682C806.272 31.6822 806.272 31.6833 806.272 31.6834C806.272 31.6832 806.272 31.6836 806.272 31.6834C806.272 31.6835 806.272 31.6842 806.272 31.6844C806.272 31.6845 806.272 31.6856 806.272 31.6858C806.272 31.686 806.272 31.687 806.272 31.6872C806.272 31.6874 806.272 31.6884 806.272 31.6886C806.272 31.6888 806.272 31.6898 806.272 31.69C806.272 31.6902 806.272 31.6912 806.272 31.6914C806.272 31.6916 806.272 31.6926 806.272 31.6928C806.272 31.693 806.272 31.694 806.272 31.6942C806.272 31.6944 806.272 31.6954 806.272 31.6956C806.272 31.6958 806.272 31.6969 806.272 31.697C806.272 31.6972 806.272 31.6983 806.272 31.6984C806.272 31.6985 806.272 31.6997 806.272 31.6998C806.272 31.6999 806.272 31.7011 806.272 31.7012C806.272 31.7013 806.272 31.7025 806.272 31.7026C806.272 31.7027 806.272 31.7039 806.272 31.704C806.272 31.7041 806.272 31.7053 806.272 31.7054C806.272 31.7055 806.272 31.7067 806.272 31.7069C806.272 31.707 806.272 31.7081 806.272 31.7083C806.272 31.7085 806.272 31.7095 806.272 31.7097C806.272 31.7099 806.272 31.7109 806.272 31.7111C806.272 31.7113 806.272 31.7123 806.272 31.7125C806.272 31.7127 806.272 31.7137 806.272 31.7139C806.272 31.7141 806.272 31.7151 806.272 31.7153C806.272 31.7155 806.272 31.7165 806.272 31.7167C806.272 31.7169 806.272 31.7179 806.272 31.7181C806.272 31.7183 806.272 31.7194 806.272 31.7195C806.272 31.7197 806.272 31.7208 806.272 31.7209C806.272 31.7207 806.272 31.7211 806.272 31.7209C806.272 31.721 806.272 31.7217 806.272 31.7219C806.272 31.722 806.272 31.7231 806.272 31.7233C806.272 31.7235 806.272 31.7245 806.272 31.7247C806.272 31.7249 806.272 31.7259 806.272 31.7261C806.272 31.7263 806.272 31.7273 806.272 31.7275C806.272 31.7277 806.272 31.7287 806.272 31.7289C806.272 31.7291 806.272 31.7301 806.272 31.7303C806.272 31.7305 806.272 31.7315 806.272 31.7317C806.272 31.7319 806.272 31.7329 806.272 31.7331C806.272 31.7333 806.272 31.7344 806.272 31.7345C806.272 31.7347 806.272 31.7358 806.272 31.7359C806.272 31.736 806.272 31.7372 806.272 31.7373C806.272 31.7374 806.272 31.7386 806.272 31.7387C806.272 31.7388 806.272 31.74 806.272 31.7401C806.272 31.7402 806.272 31.7414 806.272 31.7415C806.272 31.7416 806.272 31.7428 806.272 31.7429C806.272 31.743 806.272 31.7442 806.272 31.7444C806.272 31.7445 806.272 31.7456 806.272 31.7458C806.272 31.746 806.272 31.747 806.272 31.7472C806.272 31.7474 806.272 31.7484 806.272 31.7486C806.272 31.7488 806.272 31.7498 806.272 31.75C806.272 31.7502 806.272 31.7512 806.272 31.7514C806.272 31.7516 806.272 31.7526 806.272 31.7528C806.272 31.753 806.272 31.754 806.272 31.7542C806.272 31.7544 806.272 31.7554 806.272 31.7556C806.272 31.7558 806.272 31.7569 806.272 31.757C806.272 31.7572 806.272 31.7583 806.272 31.7584C806.272 31.7585 806.272 31.7597 806.272 31.7598C806.272 31.7599 806.272 31.7611 806.272 31.7612C806.272 31.7613 806.272 31.7625 806.272 31.7626C806.272 31.7627 806.272 31.7639 806.272 31.764C806.272 31.7641 806.272 31.7653 806.272 31.7654C806.272 31.7655 806.272 31.7667 806.272 31.7669C806.272 31.767 806.272 31.7681 806.272 31.7683C806.272 31.7685 806.272 31.7695 806.272 31.7697C806.272 31.7699 806.272 31.7709 806.272 31.7711C806.272 31.7713 806.272 31.7723 806.272 31.7725C806.272 31.7727 806.272 31.7737 806.272 31.7739C806.272 31.7741 806.272 31.7751 806.272 31.7753C806.272 31.7755 806.272 31.7765 806.272 31.7767C806.272 31.7769 806.272 31.7779 806.272 31.7781C806.272 31.7783 806.272 31.7794 806.272 31.7795C806.272 31.7797 806.272 31.7808 806.272 31.7809C806.272 31.7807 806.272 31.7811 806.272 31.7809C806.272 31.781 806.272 31.7817 806.272 31.7819C806.272 31.782 806.272 31.7831 806.272 31.7833C806.272 31.7835 806.272 31.7845 806.272 31.7847C806.272 31.7849 806.272 31.7859 806.272 31.7861C806.272 31.7863 806.272 31.7873 806.272 31.7875C806.272 31.7877 806.272 31.7887 806.272 31.7889C806.272 31.7891 806.272 31.7901 806.272 31.7903C806.272 31.7905 806.272 31.7915 806.272 31.7917C806.272 31.7919 806.272 31.7929 806.272 31.7931C806.272 31.7933 806.272 31.7944 806.272 31.7945C806.272 31.7947 806.272 31.7958 806.272 31.7959C806.272 31.796 806.272 31.7972 806.272 31.7973C806.272 31.7974 806.272 31.7986 806.272 31.7987C806.272 31.7988 806.272 31.8 806.272 31.8001C806.272 31.8002 806.272 31.8014 806.272 31.8015C806.272 31.8016 806.272 31.8028 806.272 31.8029C806.272 31.803 806.272 31.8042 806.272 31.8044C806.272 31.8045 806.272 31.8056 806.272 31.8058C806.272 31.806 806.272 31.807 806.272 31.8072C806.272 31.8074 806.272 31.8084 806.272 31.8086C806.272 31.8088 806.272 31.8098 806.272 31.81C806.272 31.8102 806.272 31.8112 806.272 31.8114C806.272 31.8116 806.272 31.8126 806.272 31.8128C806.272 31.813 806.272 31.814 806.272 31.8142C806.272 31.8144 806.272 31.8154 806.272 31.8156C806.272 31.8158 806.272 31.8169 806.272 31.817C806.272 31.8172 806.272 31.8183 806.272 31.8184C806.272 31.8182 806.272 31.8186 806.272 31.8184C806.272 31.8185 806.272 31.8192 806.272 31.8194C806.272 31.8195 806.272 31.8206 806.272 31.8208C806.272 31.821 806.272 31.822 806.272 31.8222C806.272 31.8224 806.272 31.8234 806.272 31.8236C806.272 31.8238 806.272 31.8248 806.272 31.825C806.272 31.8252 806.272 31.8262 806.272 31.8264C806.272 31.8266 806.272 31.8276 806.272 31.8278C806.272 31.828 806.272 31.829 806.272 31.8292C806.272 31.8294 806.272 31.8304 806.272 31.8306C806.272 31.8308 806.272 31.8319 806.272 31.832C806.272 31.8322 806.272 31.8333 806.272 31.8334C806.272 31.8335 806.272 31.8347 806.272 31.8348C806.272 31.8349 806.272 31.8361 806.272 31.8362C806.272 31.8363 806.272 31.8375 806.272 31.8376C806.272 31.8377 806.272 31.8389 806.272 31.839C806.272 31.8391 806.272 31.8403 806.272 31.8404C806.272 31.8405 806.272 31.8417 806.272 31.8419C806.272 31.842 806.272 31.8431 806.272 31.8433C806.272 31.8435 806.272 31.8445 806.272 31.8447C806.272 31.8449 806.272 31.8459 806.272 31.8461C806.272 31.8463 806.272 31.8473 806.272 31.8475C806.272 31.8477 806.272 31.8487 806.272 31.8489C806.272 31.8491 806.272 31.8501 806.272 31.8503C806.272 31.8505 806.272 31.8515 806.272 31.8517C806.272 31.8519 806.272 31.8529 806.272 31.8531C806.272 31.8533 806.272 31.8544 806.272 31.8545C806.272 31.8547 806.272 31.8558 806.272 31.8559C806.272 31.856 806.272 31.8572 806.272 31.8573C806.272 31.8574 806.272 31.8586 806.272 31.8587C806.272 31.8588 806.272 31.86 806.272 31.8601C806.272 31.8602 806.272 31.8614 806.272 31.8615C806.272 31.8616 806.272 31.8628 806.272 31.8629C806.272 31.863 806.272 31.8642 806.272 31.8644C806.272 31.8645 806.272 31.8656 806.272 31.8658C806.272 31.866 806.272 31.867 806.272 31.8672C806.272 31.8674 806.272 31.8684 806.272 31.8686C806.272 31.8688 806.272 31.8698 806.272 31.87H808.272C808.272 31.8702 808.272 31.8698 808.272 31.87C808.272 31.8699 808.272 31.8692 808.272 31.869C808.272 31.8688 808.272 31.8678 808.272 31.8676C808.272 31.8674 808.272 31.8664 808.272 31.8662C808.272 31.866 808.272 31.865 808.272 31.8648C808.272 31.8646 808.272 31.8636 808.272 31.8634C808.272 31.8632 808.272 31.8622 808.272 31.862C808.272 31.8618 808.272 31.8608 808.272 31.8606C808.272 31.8604 808.272 31.8594 808.272 31.8592C808.272 31.859 808.272 31.8579 808.272 31.8578C808.272 31.8576 808.272 31.8565 808.272 31.8564C808.272 31.8563 808.272 31.8551 808.272 31.855C808.272 31.8549 808.272 31.8537 808.272 31.8536C808.272 31.8535 808.272 31.8523 808.272 31.8522C808.272 31.8521 808.272 31.8509 808.272 31.8508C808.272 31.8507 808.272 31.8495 808.272 31.8494C808.272 31.8493 808.272 31.8481 808.272 31.8479C808.272 31.8478 808.272 31.8467 808.272 31.8465C808.272 31.8463 808.272 31.8453 808.272 31.8451C808.272 31.8449 808.272 31.8439 808.272 31.8437C808.272 31.8435 808.272 31.8425 808.272 31.8423C808.272 31.8421 808.272 31.8411 808.272 31.8409C808.272 31.8407 808.272 31.8397 808.272 31.8395C808.272 31.8393 808.272 31.8383 808.272 31.8381C808.272 31.8379 808.272 31.8369 808.272 31.8367C808.272 31.8365 808.272 31.8354 808.272 31.8353C808.272 31.8351 808.272 31.834 808.272 31.8339C808.272 31.8341 808.272 31.8337 808.272 31.8339C808.272 31.8338 808.272 31.8331 808.272 31.8329C808.272 31.8328 808.272 31.8317 808.272 31.8315C808.272 31.8313 808.272 31.8303 808.272 31.8301C808.272 31.8299 808.272 31.8289 808.272 31.8287C808.272 31.8285 808.272 31.8275 808.272 31.8273C808.272 31.8271 808.272 31.8261 808.272 31.8259C808.272 31.8257 808.272 31.8247 808.272 31.8245C808.272 31.8243 808.272 31.8233 808.272 31.8231C808.272 31.8229 808.272 31.8219 808.272 31.8217C808.272 31.8215 808.272 31.8204 808.272 31.8203C808.272 31.8201 808.272 31.819 808.272 31.8189C808.272 31.8188 808.272 31.8176 808.272 31.8175C808.272 31.8174 808.272 31.8162 808.272 31.8161C808.272 31.816 808.272 31.8148 808.272 31.8147C808.272 31.8146 808.272 31.8134 808.272 31.8133C808.272 31.8132 808.272 31.812 808.272 31.8119C808.272 31.8118 808.272 31.8106 808.272 31.8104C808.272 31.8103 808.272 31.8092 808.272 31.809C808.272 31.8088 808.272 31.8078 808.272 31.8076C808.272 31.8074 808.272 31.8064 808.272 31.8062C808.272 31.806 808.272 31.805 808.272 31.8048C808.272 31.8046 808.272 31.8036 808.272 31.8034C808.272 31.8032 808.272 31.8022 808.272 31.802C808.272 31.8018 808.272 31.8008 808.272 31.8006C808.272 31.8004 808.272 31.7994 808.272 31.7992C808.272 31.799 808.272 31.7979 808.272 31.7978C808.272 31.7976 808.272 31.7965 808.272 31.7964C808.272 31.7963 808.272 31.7951 808.272 31.795C808.272 31.7949 808.272 31.7937 808.272 31.7936C808.272 31.7935 808.272 31.7923 808.272 31.7922C808.272 31.7921 808.272 31.7909 808.272 31.7908C808.272 31.7907 808.272 31.7895 808.272 31.7894C808.272 31.7893 808.272 31.7881 808.272 31.7879C808.272 31.7878 808.272 31.7867 808.272 31.7865C808.272 31.7863 808.272 31.7853 808.272 31.7851C808.272 31.7849 808.272 31.7839 808.272 31.7837C808.272 31.7835 808.272 31.7825 808.272 31.7823C808.272 31.7821 808.272 31.7811 808.272 31.7809C808.272 31.7807 808.272 31.7797 808.272 31.7795C808.272 31.7793 808.272 31.7783 808.272 31.7781C808.272 31.7779 808.272 31.7769 808.272 31.7767C808.272 31.7765 808.272 31.7754 808.272 31.7753C808.272 31.7751 808.272 31.774 808.272 31.7739C808.272 31.7738 808.272 31.7726 808.272 31.7725C808.272 31.7724 808.272 31.7712 808.272 31.7711C808.272 31.771 808.272 31.7698 808.272 31.7697C808.272 31.7696 808.272 31.7684 808.272 31.7683C808.272 31.7682 808.272 31.767 808.272 31.7669C808.272 31.7668 808.272 31.7656 808.272 31.7654C808.272 31.7653 808.272 31.7642 808.272 31.764C808.272 31.7638 808.272 31.7628 808.272 31.7626C808.272 31.7624 808.272 31.7614 808.272 31.7612C808.272 31.761 808.272 31.76 808.272 31.7598C808.272 31.7596 808.272 31.7586 808.272 31.7584C808.272 31.7582 808.272 31.7572 808.272 31.757C808.272 31.7568 808.272 31.7558 808.272 31.7556C808.272 31.7554 808.272 31.7544 808.272 31.7542C808.272 31.754 808.272 31.7529 808.272 31.7528C808.272 31.7526 808.272 31.7515 808.272 31.7514C808.272 31.7513 808.272 31.7501 808.272 31.75C808.272 31.7499 808.272 31.7487 808.272 31.7486C808.272 31.7485 808.272 31.7473 808.272 31.7472C808.272 31.7471 808.272 31.7459 808.272 31.7458C808.272 31.7457 808.272 31.7445 808.272 31.7444C808.272 31.7443 808.272 31.7431 808.272 31.7429C808.272 31.7428 808.272 31.7417 808.272 31.7415C808.272 31.7413 808.272 31.7403 808.272 31.7401C808.272 31.7399 808.272 31.7389 808.272 31.7387C808.272 31.7385 808.272 31.7375 808.272 31.7373C808.272 31.7371 808.272 31.7361 808.272 31.7359C808.272 31.7357 808.272 31.7347 808.272 31.7345C808.272 31.7343 808.272 31.7333 808.272 31.7331C808.272 31.7329 808.272 31.7319 808.272 31.7317C808.272 31.7315 808.272 31.7304 808.272 31.7303C808.272 31.7301 808.272 31.729 808.272 31.7289C808.272 31.7291 808.272 31.7287 808.272 31.7289C808.272 31.7288 808.272 31.7281 808.272 31.7279C808.272 31.7278 808.272 31.7267 808.272 31.7265C808.272 31.7263 808.272 31.7253 808.272 31.7251C808.272 31.7249 808.272 31.7239 808.272 31.7237C808.272 31.7235 808.272 31.7225 808.272 31.7223C808.272 31.7221 808.272 31.7211 808.272 31.7209C808.272 31.7207 808.272 31.7197 808.272 31.7195C808.272 31.7193 808.272 31.7183 808.272 31.7181C808.272 31.7179 808.272 31.7169 808.272 31.7167C808.272 31.7165 808.272 31.7154 808.272 31.7153C808.272 31.7151 808.272 31.714 808.272 31.7139C808.272 31.7138 808.272 31.7126 808.272 31.7125C808.272 31.7124 808.272 31.7112 808.272 31.7111C808.272 31.711 808.272 31.7098 808.272 31.7097C808.272 31.7096 808.272 31.7084 808.272 31.7083C808.272 31.7082 808.272 31.707 808.272 31.7069C808.272 31.7068 808.272 31.7056 808.272 31.7054C808.272 31.7053 808.272 31.7042 808.272 31.704C808.272 31.7038 808.272 31.7028 808.272 31.7026C808.272 31.7024 808.272 31.7014 808.272 31.7012C808.272 31.701 808.272 31.7 808.272 31.6998C808.272 31.6996 808.272 31.6986 808.272 31.6984C808.272 31.6982 808.272 31.6972 808.272 31.697C808.272 31.6968 808.272 31.6958 808.272 31.6956C808.272 31.6954 808.272 31.6944 808.272 31.6942C808.272 31.694 808.272 31.6929 808.272 31.6928C808.272 31.6926 808.272 31.6915 808.272 31.6914C808.272 31.6916 808.272 31.6912 808.272 31.6914C808.272 31.6913 808.272 31.6906 808.272 31.6904C808.272 31.6903 808.272 31.6892 808.272 31.689C808.272 31.6888 808.272 31.6878 808.272 31.6876C808.272 31.6874 808.272 31.6864 808.272 31.6862C808.272 31.686 808.272 31.685 808.272 31.6848C808.272 31.6846 808.272 31.6836 808.272 31.6834C808.272 31.6832 808.272 31.6822 808.272 31.682C808.272 31.6818 808.272 31.6808 808.272 31.6806C808.272 31.6804 808.272 31.6794 808.272 31.6792C808.272 31.679 808.272 31.6779 808.272 31.6778C808.272 31.6776 808.272 31.6765 808.272 31.6764C808.272 31.6763 808.272 31.6751 808.272 31.675C808.272 31.6749 808.272 31.6737 808.272 31.6736C808.272 31.6735 808.272 31.6723 808.272 31.6722C808.272 31.6721 808.272 31.6709 808.272 31.6708C808.272 31.6707 808.272 31.6695 808.272 31.6694C808.272 31.6693 808.272 31.6681 808.272 31.6679C808.272 31.6678 808.272 31.6667 808.272 31.6665C808.272 31.6663 808.272 31.6653 808.272 31.6651C808.272 31.6649 808.272 31.6639 808.272 31.6637C808.272 31.6635 808.272 31.6625 808.272 31.6623C808.272 31.6621 808.272 31.6611 808.272 31.6609C808.272 31.6607 808.272 31.6597 808.272 31.6595C808.272 31.6593 808.272 31.6583 808.272 31.6581C808.272 31.6579 808.272 31.6569 808.272 31.6567C808.272 31.6565 808.272 31.6554 808.272 31.6553C808.272 31.6551 808.272 31.654 808.272 31.6539C808.272 31.6538 808.272 31.6526 808.272 31.6525C808.272 31.6524 808.272 31.6512 808.272 31.6511C808.272 31.651 808.272 31.6498 808.272 31.6497C808.272 31.6496 808.272 31.6484 808.272 31.6483C808.272 31.6482 808.272 31.647 808.272 31.6469C808.272 31.6468 808.272 31.6456 808.272 31.6454C808.272 31.6453 808.272 31.6442 808.272 31.644C808.272 31.6438 808.272 31.6428 808.272 31.6426C808.272 31.6424 808.272 31.6414 808.272 31.6412C808.272 31.641 808.272 31.64 808.272 31.6398C808.272 31.6396 808.272 31.6386 808.272 31.6384C808.272 31.6382 808.272 31.6372 808.272 31.637C808.272 31.6368 808.272 31.6358 808.272 31.6356C808.272 31.6354 808.272 31.6344 808.272 31.6342C808.272 31.634 808.272 31.6329 808.272 31.6328C808.272 31.6326 808.272 31.6315 808.272 31.6314C808.272 31.6313 808.272 31.6301 808.272 31.63H806.272ZM806.272 31.87C806.272 35.8337 805.178 38.2442 803.297 39.4979L804.407 41.162C807.086 39.3758 808.272 36.1463 808.272 31.87H806.272ZM803.291 39.5021C802.232 40.2197 800.504 40.8104 797.998 41.202L798.307 43.178C800.921 42.7695 802.992 42.1202 804.413 41.1579L803.291 39.5021ZM797.152 42.19V42.49H799.152V42.19H797.152ZM798.252 43.485C798.619 43.4483 798.986 43.43 799.352 43.43V41.43C798.919 41.43 798.486 41.4517 798.053 41.4949L798.252 43.485ZM799.352 43.43C799.865 43.43 800.354 43.4666 800.82 43.5384L801.124 41.5616C800.551 41.4734 799.96 41.43 799.352 41.43V43.43ZM800.838 43.5409C803.042 43.8397 804.424 44.5976 805.207 45.6624L806.818 44.4776C805.601 42.8224 803.623 41.9002 801.107 41.559L800.838 43.5409ZM805.215 45.6738C806.048 46.7736 806.512 48.2815 806.512 50.29H808.512C808.512 47.9784 807.976 46.0063 806.809 44.4661L805.215 45.6738ZM806.512 50.29V62.23H808.512V50.29H806.512ZM807.512 61.23H796.712V63.23H807.512V61.23ZM797.712 62.23V51.73H795.712V62.23H797.712ZM797.712 51.73C797.712 50.4737 797.55 49.3763 797.115 48.5594L795.35 49.5006C795.554 49.8836 795.712 50.5862 795.712 51.73H797.712ZM797.138 48.6071C796.666 47.5959 795.728 47.1175 794.647 47.0145L794.457 49.0055C795.056 49.0625 795.238 49.2641 795.326 49.4529L797.138 48.6071ZM794.701 47.021C793.833 46.8909 792.759 46.83 791.492 46.83V48.83C792.706 48.83 793.672 48.8891 794.404 48.9989L794.701 47.021ZM791.492 46.83H777.872V48.83H791.492V46.83ZM776.872 47.83V62.23H778.872V47.83H776.872ZM777.872 61.23H767.072V63.23H777.872V61.23ZM777.872 40.37H789.932V38.37H777.872V40.37ZM789.932 40.37C792.134 40.37 793.959 39.9823 795.217 39.0262L794.007 37.4338C793.265 37.9978 791.97 38.37 789.932 38.37V40.37ZM795.222 39.0226C796.54 38.0086 797.185 36.5438 797.232 34.7763L795.233 34.7237C795.199 35.9961 794.764 36.8514 794.003 37.4374L795.222 39.0226ZM797.232 34.75C797.232 33.0626 796.658 31.6234 795.468 30.5328L794.116 32.0071C794.847 32.6765 795.232 33.5573 795.232 34.75H797.232ZM795.484 30.548C794.246 29.3611 792.325 28.89 789.992 28.89V30.89C792.139 30.89 793.419 31.3388 794.1 31.992L795.484 30.548ZM789.992 28.89H777.872V30.89H789.992V28.89ZM776.872 29.89V39.37H778.872V29.89H776.872ZM822.32 60.97L821.868 61.8622L821.875 61.8655L821.881 61.8687L822.32 60.97ZM815 53.53L814.099 53.9641L814.103 53.9729L815 53.53ZM814.88 30.31L815.787 30.7304L815.789 30.7263L814.88 30.31ZM848.66 22.87L848.195 23.7556L848.2 23.7579L848.66 22.87ZM855.98 30.37L855.076 30.7995L855.08 30.8061L855.083 30.8128L855.98 30.37ZM848.66 60.91L849.107 61.8045L849.115 61.8L848.66 60.91ZM842.78 53.23L842.29 52.3578L842.281 52.3631L842.78 53.23ZM846.26 48.85L845.319 48.5113L845.316 48.5196L845.313 48.5281L846.26 48.85ZM846.32 34.99L845.375 35.3178L845.377 35.3238L846.32 34.99ZM824.54 34.93L823.587 34.6252L823.583 34.6373L824.54 34.93ZM828.14 53.29L827.648 54.161L827.658 54.1662L828.14 53.29ZM835.46 62.37C830.062 62.37 825.85 61.5796 822.758 60.0712L821.881 61.8687C825.349 63.5603 829.897 64.37 835.46 64.37V62.37ZM822.771 60.0778C819.728 58.5375 817.442 56.2172 815.896 53.0871L814.103 53.9729C815.837 57.4827 818.431 60.1224 821.868 61.8622L822.771 60.0778ZM815.9 53.0958C814.378 49.9362 813.6 46.21 813.6 41.89H811.6C811.6 46.45 812.421 50.4838 814.099 53.9641L815.9 53.0958ZM813.6 41.89C813.6 37.5628 814.34 33.8522 815.787 30.7304L813.972 29.8895C812.379 33.3278 811.6 37.3372 811.6 41.89H813.6ZM815.789 30.7263C817.211 27.6201 819.484 25.2856 822.647 23.7044L821.752 21.9156C818.195 23.6944 815.588 26.3599 813.97 29.8937L815.789 30.7263ZM822.647 23.7044C825.819 22.1183 830.069 21.29 835.46 21.29V19.29C829.89 19.29 825.3 20.1417 821.752 21.9156L822.647 23.7044ZM835.46 21.29C840.891 21.29 845.112 22.1386 848.195 23.7556L849.124 21.9844C845.648 20.1614 841.068 19.29 835.46 19.29V21.29ZM848.2 23.7579C851.332 25.3807 853.613 27.7227 855.076 30.7995L856.883 29.9405C855.226 26.4573 852.627 23.7993 849.12 21.9821L848.2 23.7579ZM855.083 30.8128C856.601 33.8872 857.38 37.5691 857.38 41.89H859.38C859.38 37.3309 858.558 33.3328 856.876 29.9272L855.083 30.8128ZM857.38 41.89C857.38 46.2104 856.601 49.9145 855.081 53.0316L856.878 53.9084C858.558 50.4655 859.38 46.4495 859.38 41.89H857.38ZM855.081 53.0316C853.577 56.115 851.293 58.4375 848.204 60.0199L849.115 61.8C852.586 60.0224 855.182 57.3849 856.878 53.9084L855.081 53.0316ZM848.212 60.0156C845.124 61.5599 840.896 62.37 835.46 62.37V64.37C841.063 64.37 845.635 63.5401 849.107 61.8045L848.212 60.0156ZM835.46 55.61C838.797 55.61 841.45 55.1482 843.278 54.0969L842.281 52.3631C840.909 53.1518 838.682 53.61 835.46 53.61V55.61ZM843.269 54.1021C845.151 53.0463 846.457 51.3745 847.206 49.1719L845.313 48.5281C844.702 50.3255 843.688 51.5736 842.29 52.3578L843.269 54.1021ZM847.2 49.1887C847.968 47.0574 848.34 44.6186 848.34 41.89H846.34C846.34 44.4414 845.991 46.6426 845.319 48.5113L847.2 49.1887ZM848.34 41.89C848.34 39.1301 847.99 36.7112 847.262 34.6561L845.377 35.3238C846.009 37.1088 846.34 39.2899 846.34 41.89H848.34ZM847.264 34.6622C846.515 32.5018 845.215 30.827 843.36 29.6962L842.319 31.4038C843.744 32.273 844.764 33.5582 845.375 35.3178L847.264 34.6622ZM843.36 29.6962C841.488 28.5547 838.809 28.05 835.46 28.05V30.05C838.67 30.05 840.911 30.5453 842.319 31.4038L843.36 29.6962ZM835.46 28.05C832.112 28.05 829.426 28.5346 827.523 29.6217L828.516 31.3582C829.973 30.5253 832.247 30.05 835.46 30.05V28.05ZM827.523 29.6217C825.607 30.7169 824.296 32.409 823.587 34.6252L825.492 35.2348C826.063 33.4509 827.072 32.183 828.516 31.3582L827.523 29.6217ZM823.583 34.6373C822.947 36.7161 822.64 39.1394 822.64 41.89H824.64C824.64 39.2805 824.932 37.0638 825.496 35.2227L823.583 34.6373ZM822.64 41.89C822.64 44.6192 823.012 47.0753 823.777 49.2428L825.663 48.5772C824.988 46.6647 824.64 44.4407 824.64 41.89H822.64ZM823.777 49.2428C824.56 51.4613 825.836 53.1386 827.648 54.161L828.631 52.419C827.323 51.6814 826.32 50.4387 825.663 48.5772L823.777 49.2428ZM827.658 54.1662C829.481 55.1689 832.126 55.61 835.46 55.61V53.61C832.233 53.61 829.998 53.171 828.621 52.4138L827.658 54.1662ZM871.233 21.43L872.151 21.033L871.89 20.43H871.233V21.43ZM883.533 49.87L882.615 50.2669L883.778 52.9547L884.502 50.1173L883.533 49.87ZM890.793 21.43V20.43H890.016L889.824 21.1826L890.793 21.43ZM902.493 21.43L903.462 21.1826L903.27 20.43H902.493V21.43ZM909.753 49.87L908.784 50.1173L909.506 52.9465L910.67 50.2686L909.753 49.87ZM922.113 21.43V20.43H921.457L921.196 21.0314L922.113 21.43ZM933.813 21.43L934.731 21.8268L935.335 20.43H933.813V21.43ZM916.173 62.23V63.23H916.83L917.091 62.6268L916.173 62.23ZM902.733 62.23L901.771 62.5026L901.977 63.23H902.733V62.23ZM896.613 40.63L897.575 40.3574L896.618 36.9782L895.652 40.3549L896.613 40.63ZM890.433 62.23V63.23H891.187L891.395 62.5051L890.433 62.23ZM877.173 62.23L876.255 62.6268L876.516 63.23H877.173V62.23ZM859.533 21.43V20.43H858.011L858.615 21.8268L859.533 21.43ZM870.315 21.8269L882.615 50.2669L884.451 49.473L872.151 21.033L870.315 21.8269ZM884.502 50.1173L891.762 21.6773L889.824 21.1826L882.564 49.6226L884.502 50.1173ZM890.793 22.43H902.493V20.43H890.793V22.43ZM901.524 21.6773L908.784 50.1173L910.722 49.6226L903.462 21.1826L901.524 21.6773ZM910.67 50.2686L923.03 21.8286L921.196 21.0314L908.836 49.4714L910.67 50.2686ZM922.113 22.43H933.813V20.43H922.113V22.43ZM932.895 21.0331L915.255 61.8331L917.091 62.6268L934.731 21.8268L932.895 21.0331ZM916.173 61.23H902.733V63.23H916.173V61.23ZM903.695 61.9574L897.575 40.3574L895.651 40.9026L901.771 62.5026L903.695 61.9574ZM895.652 40.3549L889.472 61.9549L891.395 62.5051L897.575 40.9051L895.652 40.3549ZM890.433 61.23H877.173V63.23H890.433V61.23ZM878.091 61.8331L860.451 21.0331L858.615 21.8268L876.255 62.6268L878.091 61.8331ZM859.533 22.43H871.233V20.43H859.533V22.43Z" fill="white"/>
<path d="M78.13 77C85.2331 77 91 71.2417 91 64.13C91 57.0183 85.2417 51.26 78.13 51.26C71.0183 51.26 65.26 57.0183 65.26 64.13C65.26 71.2417 71.0183 77 78.13 77Z" fill="#FDBA4F"/>
<path d="M84.8694 67.7362H82.7892V66.5245H78.2104V64.6909L83.0036 60.8413H84.8694V64.9589H85.9096V66.5245H84.8694V67.7362ZM80.7411 64.9589H82.7892V63.2862L80.7411 64.9589Z" fill="white"/>
<path d="M77.3573 62.9321C77.3573 63.2394 77.2929 63.5111 77.1643 63.747C77.0427 63.9829 76.8783 64.1974 76.671 64.3904C76.4708 64.5762 76.2206 64.7371 75.9204 64.8729C75.6273 65.0087 75.2556 65.1481 74.8052 65.2911C74.3548 65.4269 73.9688 65.5771 73.6471 65.7415C73.4684 65.8344 73.3076 65.9309 73.1646 66.031H77.2929V67.7467H70.4731V67.2534C70.4731 66.8174 70.5339 66.4385 70.6554 66.1168C70.7769 65.7951 70.9378 65.5163 71.1379 65.2804C71.3452 65.0445 71.5669 64.8407 71.8028 64.6692C72.0458 64.4976 72.3782 64.3368 72.8 64.1866C73.2218 64.0294 73.5685 63.9007 73.8401 63.8006C74.1189 63.6934 74.4263 63.5719 74.7623 63.436C75.1054 63.2931 75.277 63.1322 75.277 62.9535C75.277 62.739 75.1734 62.5782 74.966 62.471C74.7587 62.3566 74.437 62.2994 74.001 62.2994C73.5363 62.2994 73.1789 62.3602 72.9287 62.4817C72.6856 62.6032 72.5426 62.7748 72.4998 62.9964H70.4195C70.4838 62.5103 70.6411 62.0921 70.8913 61.7418C71.1487 61.3915 71.4775 61.1199 71.8778 60.9269C72.2781 60.7338 72.9894 60.6373 74.0117 60.6373C75.034 60.6373 75.7453 60.7446 76.1456 60.959C76.5459 61.1663 76.8461 61.4451 77.0463 61.7954C77.2536 62.1386 77.3573 62.5174 77.3573 62.9321Z" fill="white"/>
</svg>
