<svg width="186" height="42" viewBox="0 0 186 42" fill="none" xmlns="http://www.w3.org/2000/svg">
<path d="M36.1462 20.8006L53.0807 10.916L53.0239 30.6436L36.0894 40.5282L36.1462 20.8006Z" stroke="white" stroke-linejoin="round"/>
<path d="M42.106 26.3206V23.2178L45.7366 21.1215C46.2169 20.8361 46.6198 20.7531 46.909 20.8673C47.2034 20.9814 47.348 21.2979 47.348 21.8116C47.3325 22.2527 47.2034 22.6885 46.971 23.0621C46.7231 23.5031 46.2737 23.9079 45.6333 24.2814L42.106 26.3154V26.3206ZM45.6695 17.396L37.9434 21.8583L37.9589 37.8448L42.1163 35.4424V30.0825L46.2531 27.6904C46.4958 27.5452 46.7489 27.4154 47.0071 27.3013C47.2137 27.2131 47.348 27.2494 47.4254 27.3999C47.5029 27.5555 47.5391 27.8461 47.5391 28.2872V32.3084L51.6965 29.906V25.231C51.6965 24.3852 51.5261 23.7937 51.1852 23.4668C50.8444 23.1399 50.2711 23.1451 49.4706 23.4772C49.2795 23.555 49.0936 23.6432 48.918 23.747C48.7837 23.8248 48.6494 23.9079 48.51 24.0064V23.8819C49.3776 23.2229 50.0232 22.6055 50.4467 22.0347C51.2214 20.9918 51.6087 19.6635 51.6035 18.0498V17.9564C51.5881 16.9757 51.3298 16.3012 50.8289 15.9328C50.3279 15.5644 49.7237 15.4917 49.0213 15.72C48.3241 15.9431 47.2034 16.4983 45.6695 17.3856" fill="white"/>
<path d="M19.0566 10.8897L35.9911 1L53.0806 10.9105L36.1461 20.795L19.0566 10.8897Z" stroke="white" stroke-linejoin="round"/>
<path d="M36.1462 20.8003L36.0894 40.5279L19 30.6174L19.0568 10.8898L36.1462 20.8003Z" stroke="white" stroke-linejoin="round"/>
<path d="M34.5091 21.8636L20.5235 13.6758L20.5132 17.5206L25.5125 20.3744L25.4763 32.8015L29.5976 35.1883L29.6337 22.7613L34.4987 25.7085L34.5091 21.8636Z" fill="white"/>
<path d="M49.9199 10.7233L35.9601 2.79492L22.3154 10.8894L26.5503 13.2554L31.5496 10.2978L38.1499 13.987L41.4449 12.0309L34.8446 8.34169L36.9052 7.12233L46.6301 12.6847L49.925 10.7285L49.9199 10.7233Z" fill="white"/>
<path d="M75.193 19.106V11.4007H71.3041V8.93091H82.1134V11.4007H78.2246V19.106H75.1878H75.193Z" fill="white"/>
<path d="M83.3116 19.1061V8.33423H86.1986V12.2258C86.4981 11.7173 86.8906 11.3385 87.3761 11.0895C87.8822 10.83 88.6052 10.7003 89.5503 10.7003C90.4335 10.7003 91.1049 10.8041 91.5697 11.0168C92.0293 11.2244 92.3857 11.5512 92.6336 11.9975C92.8815 12.4437 93.0054 13.0145 93.0054 13.7098V19.1112H90.1184V14.2961C90.1184 13.9848 90.0823 13.7409 90.0151 13.5541C89.948 13.3673 89.8137 13.2376 89.6226 13.1494C89.4264 13.0664 89.0855 13.0197 88.5897 13.0197C88.0061 13.0197 87.562 13.0508 87.2728 13.1182C86.9784 13.1805 86.7563 13.2791 86.6014 13.4088C86.4465 13.5385 86.3432 13.6994 86.2864 13.8862C86.2295 14.0782 86.2037 14.2909 86.2037 14.5296V19.1061H83.3168H83.3116Z" fill="white"/>
<path d="M97.1888 15.6659C97.2662 16.0551 97.4315 16.3664 97.6794 16.5947C98.0357 16.9528 98.6348 17.1344 99.4663 17.1344C100.241 17.1344 100.726 17.0773 100.918 16.9683C101.109 16.8594 101.264 16.6777 101.372 16.4287H104.393C104.197 17.3575 103.712 18.0839 102.942 18.608C102.173 19.132 101.016 19.3915 99.4663 19.3915C98.1958 19.3915 97.1681 19.215 96.3883 18.8622C95.6084 18.5094 95.0506 18.0061 94.7046 17.3575C94.3586 16.7089 94.1882 15.9409 94.1882 15.0537C94.1882 14.1664 94.3586 13.3362 94.7046 12.6876C95.0506 12.039 95.6033 11.5461 96.3728 11.2088C97.1423 10.8715 98.1442 10.7003 99.3734 10.7003C100.716 10.7003 101.708 10.8767 102.353 11.2244C102.999 11.572 103.489 12.0701 103.825 12.7187C104.161 13.3673 104.331 14.1405 104.331 15.0381V15.6659H97.1836H97.1888ZM101.341 14.1405C101.279 13.881 101.196 13.6631 101.088 13.4815C100.85 13.1338 100.277 12.9574 99.3734 12.9574C98.5677 12.9574 97.9944 13.1338 97.6484 13.4815C97.478 13.6631 97.3489 13.881 97.2611 14.1405H101.341Z" fill="white"/>
<path d="M108.267 19.106V8.93091H117.248V11.3229H111.308V12.8173H117.088V15.2093H111.308V19.1008H108.272L108.267 19.106Z" fill="white"/>
<path d="M127.985 10.98V17.7254L128.326 19.1004H125.439L125.113 17.8136C124.814 18.3429 124.421 18.732 123.936 18.9811C123.419 19.2509 122.691 19.3858 121.746 19.3858C120.863 19.3858 120.191 19.282 119.727 19.0693C119.267 18.8617 118.911 18.5348 118.663 18.0886C118.415 17.6476 118.291 17.0716 118.291 16.3763V10.9749H121.178V15.79C121.178 16.1013 121.214 16.3452 121.281 16.532C121.348 16.7188 121.483 16.8537 121.674 16.9367C121.87 17.0197 122.211 17.0664 122.707 17.0664C123.29 17.0664 123.729 17.0353 124.024 16.9678C124.318 16.9056 124.54 16.807 124.695 16.6773C124.85 16.5476 124.953 16.3867 125.01 16.1999C125.062 16.0079 125.093 15.7952 125.093 15.5565V10.98H127.98H127.985Z" fill="white"/>
<path d="M130.381 16.2782V13.1649H129.519V10.9805H130.381L130.918 8.93091H133.733L133.227 10.9182V10.9805H135.535V13.1649H133.273V15.9772C133.273 16.3145 133.335 16.5843 133.47 16.7763C133.599 16.9735 133.883 17.0669 134.317 17.0669H135.535V19.2513H133.155C132.22 19.2513 131.528 19.0023 131.068 18.5093C130.614 18.0164 130.381 17.2692 130.381 16.273V16.2782Z" fill="white"/>
<path d="M146.422 10.98V17.7254L146.763 19.1004H143.876L143.551 17.8136C143.251 18.3429 142.859 18.732 142.373 18.9811C141.857 19.2509 141.129 19.3858 140.183 19.3858C139.3 19.3858 138.629 19.282 138.164 19.0693C137.704 18.8617 137.348 18.5348 137.1 18.0886C136.852 17.6476 136.728 17.0716 136.728 16.3763V10.9749H139.615V15.79C139.615 16.1013 139.652 16.3452 139.719 16.532C139.786 16.7188 139.92 16.8537 140.111 16.9367C140.307 17.0197 140.648 17.0664 141.144 17.0664C141.728 17.0664 142.167 17.0353 142.461 16.9678C142.755 16.9056 142.977 16.807 143.132 16.6773C143.287 16.5476 143.391 16.3867 143.447 16.1999C143.499 16.0079 143.53 15.7952 143.53 15.5565V10.98H146.417H146.422Z" fill="white"/>
<path d="M151.184 15.2296V19.1056H148.297V12.3602L147.956 10.9852H150.843L151.158 12.2253C151.365 11.8154 151.618 11.53 151.917 11.3744C152.304 11.1668 152.712 11.0475 153.136 11.0164C153.384 10.9956 153.606 10.9852 153.797 10.98C153.993 10.98 154.148 10.9749 154.267 10.9749C154.515 10.9749 154.814 10.9749 155.16 10.9904V13.1593H153.492C153.053 13.1593 152.671 13.2423 152.346 13.4136C152.02 13.5848 151.778 13.7456 151.633 13.9013C151.483 14.057 151.375 14.2438 151.297 14.4721C151.22 14.7004 151.184 14.9546 151.184 15.24V15.2296Z" fill="white"/>
<path d="M159.199 15.6659C159.277 16.0551 159.442 16.3664 159.69 16.5947C160.046 16.9528 160.645 17.1344 161.477 17.1344C162.252 17.1344 162.737 17.0773 162.928 16.9683C163.119 16.8594 163.274 16.6777 163.383 16.4287H166.404C166.208 17.3575 165.722 18.0839 164.953 18.608C164.183 19.132 163.026 19.3915 161.477 19.3915C160.206 19.3915 159.179 19.215 158.399 18.8622C157.619 18.5094 157.061 18.0061 156.715 17.3575C156.369 16.7089 156.199 15.9409 156.199 15.0537C156.199 14.1664 156.369 13.3362 156.715 12.6876C157.061 12.039 157.614 11.5461 158.383 11.2088C159.153 10.8715 160.155 10.7003 161.384 10.7003C162.727 10.7003 163.718 10.8767 164.364 11.2244C165.009 11.572 165.5 12.0701 165.836 12.7187C166.171 13.3673 166.342 14.1405 166.342 15.0381V15.6659H159.194H159.199ZM163.352 14.1405C163.29 13.881 163.207 13.6631 163.098 13.4815C162.861 13.1338 162.288 12.9574 161.384 12.9574C160.578 12.9574 160.005 13.1338 159.659 13.4815C159.488 13.6631 159.359 13.881 159.272 14.1405H163.352Z" fill="white"/>
<path d="M71.3041 24.1544V22.136H74.191V24.1544H71.3041ZM71.3041 32.9078V24.7822H74.191V32.9078H71.3041Z" fill="white"/>
<path d="M78.0231 27.3302C78.0231 27.5222 78.1522 27.6311 78.4156 27.6571C78.679 27.6882 79.0044 27.7193 79.3917 27.7453C79.779 27.7712 80.1716 27.8024 80.5744 27.8283C80.9772 27.8542 81.3284 27.8802 81.6228 27.9009C81.9223 27.9269 82.2684 27.9788 82.666 28.067C83.0637 28.15 83.3839 28.2901 83.6266 28.4769C83.8694 28.6637 84.0501 28.9231 84.1637 29.25C84.2774 29.5769 84.3342 29.9453 84.3342 30.3656C84.3342 31.1335 84.1689 31.725 83.8435 32.1298C83.5182 32.5397 83.0637 32.8095 82.4904 32.9444C81.9172 33.0793 81.1322 33.1468 80.1354 33.1468C79.025 33.1468 78.1626 33.0793 77.5583 32.9444C76.9541 32.8095 76.4376 32.5501 76.0193 32.1609C75.5958 31.7717 75.384 31.0557 75.384 30.0076H77.7959C77.7959 30.2981 77.9663 30.5264 78.302 30.7029C78.6377 30.8793 79.2264 30.9623 80.0579 30.9623C80.8429 30.9623 81.3439 30.8897 81.5711 30.7444C81.7932 30.5991 81.9068 30.4382 81.9068 30.2566C81.9068 30.0958 81.7932 30.0024 81.5711 29.9816C81.3491 29.9557 81.034 29.9297 80.626 29.8986C80.218 29.8675 79.7945 29.8363 79.3504 29.8104C78.9062 29.7845 78.5344 29.7481 78.2349 29.7066C77.9301 29.6651 77.579 29.5925 77.1761 29.4887C76.7733 29.3849 76.4479 29.2293 76.1949 29.0269C75.9418 28.8245 75.7404 28.5547 75.6009 28.2278C75.4615 27.9009 75.384 27.5325 75.384 27.1382C75.384 26.4792 75.5286 25.9604 75.823 25.5764C76.1174 25.1924 76.5822 24.9226 77.2226 24.7669C77.863 24.6113 78.7513 24.5334 79.8978 24.5334C80.9772 24.5334 81.7984 24.6113 82.3458 24.7669C82.8984 24.9226 83.3581 25.2028 83.7402 25.6127C84.1173 26.0226 84.3135 26.6712 84.3342 27.5585H81.9533C81.9533 27.3302 81.7932 27.1434 81.4782 26.9981C81.158 26.8528 80.657 26.7802 79.9753 26.7802C79.0715 26.7802 78.5189 26.8321 78.3226 26.9306C78.1264 27.0292 78.0231 27.1641 78.0231 27.3354V27.3302Z" fill="white"/>
<path d="M88.2079 32.9078V22.7327H93.8527C94.9734 22.7327 95.7894 22.7897 96.3007 22.9039C96.812 23.018 97.251 23.2879 97.6177 23.703C97.9843 24.1181 98.1754 24.6473 98.1858 25.2751V25.3374C98.1858 26.3648 97.9017 27.0705 97.3388 27.4492C97.0289 27.6568 96.5589 27.8124 95.9237 27.911V27.9837C96.0218 27.9733 96.1199 27.9681 96.2232 27.9681C96.3627 27.9681 96.497 27.9785 96.6261 27.9992C97.2097 28.0771 97.628 28.2846 97.8759 28.6219C98.1238 28.954 98.2477 29.3898 98.2477 29.9294V32.9078H95.211V30.3497C95.211 30.0695 95.1852 29.8672 95.1284 29.7427C95.0715 29.6181 94.9734 29.5455 94.8236 29.5247C94.6739 29.504 94.4931 29.4936 94.271 29.4936H91.2498V32.9026H88.213L88.2079 32.9078ZM91.2446 27.1016H93.8217C94.2865 27.1016 94.6119 27.0082 94.7978 26.8162C94.9837 26.6242 95.0715 26.4063 95.0715 26.1572C95.0715 25.8303 94.9631 25.5761 94.7513 25.3945C94.5396 25.2129 94.2504 25.1247 93.894 25.1247H91.2446V27.1016Z" fill="white"/>
<path d="M102.431 29.4679C102.508 29.8571 102.673 30.1684 102.921 30.3967C103.278 30.7548 103.877 30.9364 104.708 30.9364C105.483 30.9364 105.968 30.8793 106.159 30.7703C106.351 30.6614 106.506 30.4797 106.614 30.2307H109.635C109.439 31.1595 108.954 31.8859 108.184 32.41C107.414 32.934 106.258 33.1935 104.708 33.1935C103.438 33.1935 102.41 33.017 101.63 32.6642C100.85 32.3114 100.293 31.8081 99.9466 31.1595C99.6057 30.5109 99.4301 29.7429 99.4301 28.8557C99.4301 27.9684 99.6005 27.1382 99.9466 26.4896C100.287 25.841 100.845 25.3481 101.615 25.0108C102.384 24.6735 103.386 24.5023 104.615 24.5023C105.958 24.5023 106.95 24.6787 107.595 25.0264C108.241 25.374 108.731 25.8721 109.067 26.5207C109.403 27.1693 109.573 27.9425 109.573 28.8401V29.4679H102.426H102.431ZM106.583 27.9425C106.521 27.683 106.438 27.4651 106.33 27.2835C106.092 26.9358 105.519 26.7594 104.615 26.7594C103.81 26.7594 103.236 26.9358 102.89 27.2835C102.72 27.4651 102.591 27.683 102.503 27.9425H106.583Z" fill="white"/>
<path d="M114.061 28.3316V32.9081H111.174V26.1627L110.833 24.7877H113.72L114.035 26.0278C114.273 25.5971 114.557 25.2443 114.882 24.9641C115.239 24.6528 115.827 24.5023 116.638 24.5023C117.253 24.5023 117.826 24.5698 118.353 24.7047C118.88 24.8396 119.236 25.1665 119.427 25.6854C119.468 25.8254 119.505 25.9707 119.546 26.1212C119.794 25.6542 120.093 25.2703 120.439 24.9693C120.796 24.658 121.385 24.5075 122.195 24.5075C122.81 24.5075 123.383 24.575 123.91 24.7099C124.437 24.8448 124.793 25.1717 124.974 25.6905C125.16 26.2094 125.248 26.8165 125.248 27.517V32.9185H122.361V28.0981C122.361 27.7868 122.345 27.5222 122.309 27.2991C122.273 27.0759 122.144 26.941 121.916 26.8943C121.689 26.8476 121.462 26.8269 121.23 26.8269C120.853 26.8269 120.579 26.8476 120.403 26.8943C120.228 26.941 120.083 27.0344 119.964 27.1849C119.845 27.3354 119.763 27.5066 119.711 27.6934C119.701 27.7038 119.696 27.7141 119.696 27.7245V32.9185H116.809V28.0981C116.809 27.7868 116.793 27.5222 116.757 27.2991C116.721 27.0759 116.592 26.941 116.365 26.8943C116.137 26.8476 115.91 26.8269 115.678 26.8269C115.301 26.8269 115.027 26.8476 114.851 26.8943C114.676 26.941 114.531 27.0344 114.412 27.1849C114.294 27.3354 114.206 27.5066 114.154 27.6934C114.097 27.8854 114.072 28.0981 114.072 28.3368L114.061 28.3316Z" fill="white"/>
<path d="M131.512 33.194C130.273 33.194 129.271 33.0435 128.501 32.7425C127.737 32.4416 127.2 31.9435 126.895 31.2378C126.59 30.5321 126.435 29.7382 126.435 28.851C126.435 27.9637 126.575 27.1179 126.859 26.433C127.143 25.7481 127.68 25.2552 128.481 24.949C129.281 24.6429 130.288 24.4924 131.512 24.4924C132.85 24.4924 133.872 24.6377 134.58 24.9283C135.287 25.2189 135.804 25.717 136.129 26.433C136.455 27.1439 136.62 27.9533 136.62 28.851C136.62 29.7486 136.439 30.584 136.078 31.2949C135.716 32.0057 135.194 32.5038 134.523 32.7737C133.852 33.0435 132.845 33.1836 131.517 33.1836L131.512 33.194ZM131.512 30.8746C132.395 30.8746 132.974 30.7034 133.247 30.3609C133.521 30.0184 133.655 29.5151 133.655 28.8562C133.655 28.1972 133.521 27.6835 133.247 27.3359C132.974 26.9934 132.395 26.8222 131.512 26.8222C130.727 26.8222 130.18 26.9934 129.865 27.3359C129.55 27.6783 129.395 28.1868 129.395 28.8562C129.395 29.5255 129.55 30.0184 129.865 30.3609C130.18 30.7034 130.727 30.8746 131.512 30.8746Z" fill="white"/>
<path d="M138.675 30.0799V26.9667H137.813V24.7822H138.675L139.212 22.7327H142.027L141.521 24.72V24.7822H143.83V26.9667H141.567V29.779C141.567 30.1162 141.629 30.3861 141.764 30.578C141.893 30.77 142.177 30.8686 142.611 30.8686H143.83V33.0531H141.449C140.514 33.0531 139.822 32.804 139.362 32.3111C138.908 31.8182 138.675 31.071 138.675 30.0747V30.0799Z" fill="white"/>
<path d="M148.013 29.4679C148.091 29.8571 148.256 30.1684 148.504 30.3967C148.86 30.7548 149.459 30.9364 150.291 30.9364C151.065 30.9364 151.551 30.8793 151.742 30.7703C151.933 30.6614 152.088 30.4797 152.196 30.2307H155.218C155.021 31.1595 154.536 31.8859 153.766 32.41C152.997 32.934 151.84 33.1935 150.291 33.1935C149.02 33.1935 147.992 33.017 147.213 32.6642C146.433 32.3114 145.875 31.8081 145.529 31.1595C145.188 30.5109 145.012 29.7429 145.012 28.8557C145.012 27.9684 145.183 27.1382 145.529 26.4896C145.87 25.841 146.428 25.3481 147.197 25.0108C147.967 24.6735 148.968 24.5023 150.198 24.5023C151.54 24.5023 152.532 24.6787 153.178 25.0264C153.823 25.374 154.314 25.8721 154.649 26.5207C154.985 27.1693 155.156 27.9425 155.156 28.8401V29.4679H148.008H148.013ZM152.165 27.9425C152.103 27.683 152.021 27.4651 151.912 27.2835C151.675 26.9358 151.101 26.7594 150.198 26.7594C149.392 26.7594 148.819 26.9358 148.473 27.2835C148.302 27.4651 148.173 27.683 148.085 27.9425H152.165Z" fill="white"/>
<path d="M53.13 39.26C56.5132 39.26 59.26 36.5173 59.26 33.13C59.26 29.7427 56.5173 27 53.13 27C49.7427 27 47 29.7427 47 33.13C47 36.5173 49.7427 39.26 53.13 39.26Z" fill="#FDBA4F"/>
<path d="M56.34 34.8476H55.3492V34.2705H53.1683V33.3971L55.4513 31.5636H56.34V33.5248H56.8354V34.2705H56.34V34.8476ZM54.3737 33.5248H55.3492V32.7281L54.3737 33.5248Z" fill="white"/>
<path d="M52.762 32.5594C52.762 32.7058 52.7313 32.8352 52.67 32.9476C52.6121 33.0599 52.5338 33.1621 52.4351 33.254C52.3398 33.3425 52.2206 33.4192 52.0776 33.4838C51.938 33.5485 51.7609 33.6149 51.5464 33.683C51.3319 33.7477 51.148 33.8192 50.9948 33.8975C50.9097 33.9418 50.8331 33.9878 50.765 34.0354H52.7313V34.8526H49.483V34.6177C49.483 34.41 49.512 34.2295 49.5699 34.0763C49.6277 33.9231 49.7043 33.7903 49.7997 33.6779C49.8984 33.5656 50.004 33.4685 50.1163 33.3868C50.2321 33.3051 50.3904 33.2285 50.5913 33.157C50.7922 33.0821 50.9574 33.0208 51.0867 32.9731C51.2195 32.922 51.3659 32.8642 51.526 32.7995C51.6894 32.7314 51.7711 32.6547 51.7711 32.5696C51.7711 32.4675 51.7218 32.3909 51.623 32.3398C51.5243 32.2853 51.3711 32.2581 51.1634 32.2581C50.942 32.2581 50.7718 32.287 50.6526 32.3449C50.5368 32.4028 50.4688 32.4845 50.4483 32.5901H49.4575C49.4881 32.3585 49.563 32.1593 49.6822 31.9925C49.8048 31.8257 49.9614 31.6963 50.1521 31.6043C50.3428 31.5124 50.6816 31.4664 51.1685 31.4664C51.6554 31.4664 51.9942 31.5175 52.1848 31.6197C52.3755 31.7184 52.5185 31.8512 52.6139 32.018C52.7126 32.1815 52.762 32.3619 52.762 32.5594Z" fill="white"/>
</svg>
